<?xml version="1.0" encoding="utf-8" standalone="no"?>
<!DOCTYPE svg PUBLIC "-//W3C//DTD SVG 1.1//EN"
  "http://www.w3.org/Graphics/SVG/1.1/DTD/svg11.dtd">
<svg xmlns:xlink="http://www.w3.org/1999/xlink" width="442.85625pt" height="397.93125pt" viewBox="0 0 442.85625 397.93125" xmlns="http://www.w3.org/2000/svg" version="1.1">
 <metadata>
  <rdf:RDF xmlns:dc="http://purl.org/dc/elements/1.1/" xmlns:cc="http://creativecommons.org/ns#" xmlns:rdf="http://www.w3.org/1999/02/22-rdf-syntax-ns#">
   <cc:Work>
    <dc:type rdf:resource="http://purl.org/dc/dcmitype/StillImage"/>
    <dc:date>2025-11-02T21:04:43.308673</dc:date>
    <dc:format>image/svg+xml</dc:format>
    <dc:creator>
     <cc:Agent>
      <dc:title>Matplotlib v3.9.2, https://matplotlib.org/</dc:title>
     </cc:Agent>
    </dc:creator>
   </cc:Work>
  </rdf:RDF>
 </metadata>
 <defs>
  <style type="text/css">*{stroke-linejoin: round; stroke-linecap: butt}</style>
 </defs>
 <g id="figure_1">
  <g id="patch_1">
   <path d="M 0 397.93125 
L 442.85625 397.93125 
L 442.85625 0 
L 0 0 
z
" style="fill: #ffffff"/>
  </g>
  <g id="axes_1">
   <g id="patch_2">
    <path d="M 97.193125 329.76 
L 412.553125 329.76 
L 412.553125 14.4 
L 97.193125 14.4 
L 97.193125 329.76 
z
" style="fill: none"/>
   </g>
   <g id="PathCollection_1">
    <defs>
     <path id="C0_0_51bbd21a03" d="M 0 3.872983 
C 1.027127 3.872983 2.012324 3.464901 2.738613 2.738613 
C 3.464901 2.012324 3.872983 1.027127 3.872983 -0 
C 3.872983 -1.027127 3.464901 -2.012324 2.738613 -2.738613 
C 2.012324 -3.464901 1.027127 -3.872983 0 -3.872983 
C -1.027127 -3.872983 -2.012324 -3.464901 -2.738613 -2.738613 
C -3.464901 -2.012324 -3.872983 -1.027127 -3.872983 0 
C -3.872983 1.027127 -3.464901 2.012324 -2.738613 2.738613 
C -2.012324 3.464901 -1.027127 3.872983 0 3.872983 
z
"/>
    </defs>
    <g clip-path="url(#p47e711e209)">
     <use xlink:href="#C0_0_51bbd21a03" x="177.293683" y="167.178121" style="fill: #808080; fill-opacity: 0.7"/>
    </g>
    <g clip-path="url(#p47e711e209)">
     <use xlink:href="#C0_0_51bbd21a03" x="236.091915" y="146.443317" style="fill: #808080; fill-opacity: 0.7"/>
    </g>
    <g clip-path="url(#p47e711e209)">
     <use xlink:href="#C0_0_51bbd21a03" x="199.123225" y="167.825629" style="fill: #808080; fill-opacity: 0.7"/>
    </g>
    <g clip-path="url(#p47e711e209)">
     <use xlink:href="#C0_0_51bbd21a03" x="250.719048" y="117.505002" style="fill: #808080; fill-opacity: 0.7"/>
    </g>
    <g clip-path="url(#p47e711e209)">
     <use xlink:href="#C0_0_51bbd21a03" x="197.244648" y="315.425455" style="fill: #808080; fill-opacity: 0.7"/>
    </g>
    <g clip-path="url(#p47e711e209)">
     <use xlink:href="#C0_0_51bbd21a03" x="131.377194" y="258.742938" style="fill: #808080; fill-opacity: 0.7"/>
    </g>
    <g clip-path="url(#p47e711e209)">
     <use xlink:href="#C0_0_51bbd21a03" x="258.313259" y="154.747989" style="fill: #808080; fill-opacity: 0.7"/>
    </g>
    <g clip-path="url(#p47e711e209)">
     <use xlink:href="#C0_0_51bbd21a03" x="247.034165" y="266.624001" style="fill: #808080; fill-opacity: 0.7"/>
    </g>
    <g clip-path="url(#p47e711e209)">
     <use xlink:href="#C0_0_51bbd21a03" x="105.598408" y="192.626572" style="fill: #808080; fill-opacity: 0.7"/>
    </g>
    <g clip-path="url(#p47e711e209)">
     <use xlink:href="#C0_0_51bbd21a03" x="153.33222" y="188.003571" style="fill: #808080; fill-opacity: 0.7"/>
    </g>
    <g clip-path="url(#p47e711e209)">
     <use xlink:href="#C0_0_51bbd21a03" x="248.798121" y="226.2938" style="fill: #808080; fill-opacity: 0.7"/>
    </g>
    <g clip-path="url(#p47e711e209)">
     <use xlink:href="#C0_0_51bbd21a03" x="221.125013" y="150.057392" style="fill: #808080; fill-opacity: 0.7"/>
    </g>
    <g clip-path="url(#p47e711e209)">
     <use xlink:href="#C0_0_51bbd21a03" x="138.167683" y="192.340604" style="fill: #808080; fill-opacity: 0.7"/>
    </g>
    <g clip-path="url(#p47e711e209)">
     <use xlink:href="#C0_0_51bbd21a03" x="273.075169" y="239.655804" style="fill: #808080; fill-opacity: 0.7"/>
    </g>
    <g clip-path="url(#p47e711e209)">
     <use xlink:href="#C0_0_51bbd21a03" x="127.165702" y="196.87117" style="fill: #808080; fill-opacity: 0.7"/>
    </g>
    <g clip-path="url(#p47e711e209)">
     <use xlink:href="#C0_0_51bbd21a03" x="155.153067" y="202.317875" style="fill: #808080; fill-opacity: 0.7"/>
    </g>
    <g clip-path="url(#p47e711e209)">
     <use xlink:href="#C0_0_51bbd21a03" x="250.853967" y="156.389191" style="fill: #808080; fill-opacity: 0.7"/>
    </g>
    <g clip-path="url(#p47e711e209)">
     <use xlink:href="#C0_0_51bbd21a03" x="277.944957" y="153.687936" style="fill: #808080; fill-opacity: 0.7"/>
    </g>
    <g clip-path="url(#p47e711e209)">
     <use xlink:href="#C0_0_51bbd21a03" x="156.340487" y="239.853577" style="fill: #808080; fill-opacity: 0.7"/>
    </g>
    <g clip-path="url(#p47e711e209)">
     <use xlink:href="#C0_0_51bbd21a03" x="248.005749" y="194.520563" style="fill: #808080; fill-opacity: 0.7"/>
    </g>
    <g clip-path="url(#p47e711e209)">
     <use xlink:href="#C0_0_51bbd21a03" x="207.389017" y="200.845298" style="fill: #808080; fill-opacity: 0.7"/>
    </g>
    <g clip-path="url(#p47e711e209)">
     <use xlink:href="#C0_0_51bbd21a03" x="163.599546" y="170.909575" style="fill: #808080; fill-opacity: 0.7"/>
    </g>
    <g clip-path="url(#p47e711e209)">
     <use xlink:href="#C0_0_51bbd21a03" x="219.448404" y="129.464432" style="fill: #808080; fill-opacity: 0.7"/>
    </g>
    <g clip-path="url(#p47e711e209)">
     <use xlink:href="#C0_0_51bbd21a03" x="274.432824" y="110.364072" style="fill: #808080; fill-opacity: 0.7"/>
    </g>
    <g clip-path="url(#p47e711e209)">
     <use xlink:href="#C0_0_51bbd21a03" x="272.488673" y="87.052574" style="fill: #808080; fill-opacity: 0.7"/>
    </g>
    <g clip-path="url(#p47e711e209)">
     <use xlink:href="#C0_0_51bbd21a03" x="254.453164" y="154.063972" style="fill: #808080; fill-opacity: 0.7"/>
    </g>
    <g clip-path="url(#p47e711e209)">
     <use xlink:href="#C0_0_51bbd21a03" x="199.725497" y="28.734545" style="fill: #808080; fill-opacity: 0.7"/>
    </g>
    <g clip-path="url(#p47e711e209)">
     <use xlink:href="#C0_0_51bbd21a03" x="168.839905" y="247.355713" style="fill: #808080; fill-opacity: 0.7"/>
    </g>
    <g clip-path="url(#p47e711e209)">
     <use xlink:href="#C0_0_51bbd21a03" x="249.911761" y="183.236462" style="fill: #808080; fill-opacity: 0.7"/>
    </g>
    <g clip-path="url(#p47e711e209)">
     <use xlink:href="#C0_0_51bbd21a03" x="227.140515" y="211.119548" style="fill: #808080; fill-opacity: 0.7"/>
    </g>
    <g clip-path="url(#p47e711e209)">
     <use xlink:href="#C0_0_51bbd21a03" x="135.8138" y="173.178036" style="fill: #808080; fill-opacity: 0.7"/>
    </g>
    <g clip-path="url(#p47e711e209)">
     <use xlink:href="#C0_0_51bbd21a03" x="282.7748" y="135.185327" style="fill: #808080; fill-opacity: 0.7"/>
    </g>
    <g clip-path="url(#p47e711e209)">
     <use xlink:href="#C0_0_51bbd21a03" x="166.631119" y="222.834776" style="fill: #808080; fill-opacity: 0.7"/>
    </g>
    <g clip-path="url(#p47e711e209)">
     <use xlink:href="#C0_0_51bbd21a03" x="244.154653" y="188.629734" style="fill: #808080; fill-opacity: 0.7"/>
    </g>
    <g clip-path="url(#p47e711e209)">
     <use xlink:href="#C0_0_51bbd21a03" x="227.296222" y="290.624328" style="fill: #808080; fill-opacity: 0.7"/>
    </g>
    <g clip-path="url(#p47e711e209)">
     <use xlink:href="#C0_0_51bbd21a03" x="242.267353" y="229.345233" style="fill: #808080; fill-opacity: 0.7"/>
    </g>
    <g clip-path="url(#p47e711e209)">
     <use xlink:href="#C0_0_51bbd21a03" x="273.075171" y="111.986427" style="fill: #808080; fill-opacity: 0.7"/>
    </g>
    <g clip-path="url(#p47e711e209)">
     <use xlink:href="#C0_0_51bbd21a03" x="294.580486" y="181.728343" style="fill: #808080; fill-opacity: 0.7"/>
    </g>
    <g clip-path="url(#p47e711e209)">
     <use xlink:href="#C0_0_51bbd21a03" x="220.708558" y="159.566292" style="fill: #808080; fill-opacity: 0.7"/>
    </g>
    <g clip-path="url(#p47e711e209)">
     <use xlink:href="#C0_0_51bbd21a03" x="214.659127" y="177.473195" style="fill: #808080; fill-opacity: 0.7"/>
    </g>
    <g clip-path="url(#p47e711e209)">
     <use xlink:href="#C0_0_51bbd21a03" x="330.63312" y="108.516371" style="fill: #808080; fill-opacity: 0.7"/>
    </g>
    <g clip-path="url(#p47e711e209)">
     <use xlink:href="#C0_0_51bbd21a03" x="265.298874" y="80.063356" style="fill: #808080; fill-opacity: 0.7"/>
    </g>
    <g clip-path="url(#p47e711e209)">
     <use xlink:href="#C0_0_51bbd21a03" x="123.053076" y="220.330401" style="fill: #808080; fill-opacity: 0.7"/>
    </g>
    <g clip-path="url(#p47e711e209)">
     <use xlink:href="#C0_0_51bbd21a03" x="216.022427" y="226.548369" style="fill: #808080; fill-opacity: 0.7"/>
    </g>
    <g clip-path="url(#p47e711e209)">
     <use xlink:href="#C0_0_51bbd21a03" x="230.305948" y="87.29896" style="fill: #808080; fill-opacity: 0.7"/>
    </g>
    <g clip-path="url(#p47e711e209)">
     <use xlink:href="#C0_0_51bbd21a03" x="244.289084" y="121.346988" style="fill: #808080; fill-opacity: 0.7"/>
    </g>
    <g clip-path="url(#p47e711e209)">
     <use xlink:href="#C0_0_51bbd21a03" x="176.487978" y="139.042342" style="fill: #808080; fill-opacity: 0.7"/>
    </g>
    <g clip-path="url(#p47e711e209)">
     <use xlink:href="#C0_0_51bbd21a03" x="216.502555" y="272.972412" style="fill: #808080; fill-opacity: 0.7"/>
    </g>
    <g clip-path="url(#p47e711e209)">
     <use xlink:href="#C0_0_51bbd21a03" x="178.819263" y="183.48981" style="fill: #808080; fill-opacity: 0.7"/>
    </g>
    <g clip-path="url(#p47e711e209)">
     <use xlink:href="#C0_0_51bbd21a03" x="314.954737" y="130.470565" style="fill: #808080; fill-opacity: 0.7"/>
    </g>
    <g clip-path="url(#p47e711e209)">
     <use xlink:href="#C0_0_51bbd21a03" x="178.213777" y="201.720813" style="fill: #808080; fill-opacity: 0.7"/>
    </g>
    <g clip-path="url(#p47e711e209)">
     <use xlink:href="#C0_0_51bbd21a03" x="299.695982" y="89.919843" style="fill: #808080; fill-opacity: 0.7"/>
    </g>
    <g clip-path="url(#p47e711e209)">
     <use xlink:href="#C0_0_51bbd21a03" x="343.094986" y="162.062599" style="fill: #808080; fill-opacity: 0.7"/>
    </g>
    <g clip-path="url(#p47e711e209)">
     <use xlink:href="#C0_0_51bbd21a03" x="250.08988" y="216.227881" style="fill: #808080; fill-opacity: 0.7"/>
    </g>
    <g clip-path="url(#p47e711e209)">
     <use xlink:href="#C0_0_51bbd21a03" x="293.611083" y="104.999837" style="fill: #808080; fill-opacity: 0.7"/>
    </g>
    <g clip-path="url(#p47e711e209)">
     <use xlink:href="#C0_0_51bbd21a03" x="261.138604" y="215.585903" style="fill: #808080; fill-opacity: 0.7"/>
    </g>
    <g clip-path="url(#p47e711e209)">
     <use xlink:href="#C0_0_51bbd21a03" x="395.759404" y="54.766366" style="fill: #808080; fill-opacity: 0.7"/>
    </g>
    <g clip-path="url(#p47e711e209)">
     <use xlink:href="#C0_0_51bbd21a03" x="374.306641" y="133.944396" style="fill: #808080; fill-opacity: 0.7"/>
    </g>
    <g clip-path="url(#p47e711e209)">
     <use xlink:href="#C0_0_51bbd21a03" x="250.812081" y="234.460438" style="fill: #808080; fill-opacity: 0.7"/>
    </g>
    <g clip-path="url(#p47e711e209)">
     <use xlink:href="#C0_0_51bbd21a03" x="375.384739" y="136.116933" style="fill: #808080; fill-opacity: 0.7"/>
    </g>
    <g clip-path="url(#p47e711e209)">
     <use xlink:href="#C0_0_51bbd21a03" x="251.159575" y="91.600055" style="fill: #808080; fill-opacity: 0.7"/>
    </g>
    <g clip-path="url(#p47e711e209)">
     <use xlink:href="#C0_0_51bbd21a03" x="335.743313" y="153.305408" style="fill: #808080; fill-opacity: 0.7"/>
    </g>
    <g clip-path="url(#p47e711e209)">
     <use xlink:href="#C0_0_51bbd21a03" x="248.574781" y="247.485343" style="fill: #808080; fill-opacity: 0.7"/>
    </g>
    <g clip-path="url(#p47e711e209)">
     <use xlink:href="#C0_0_51bbd21a03" x="269.191257" y="108.773135" style="fill: #808080; fill-opacity: 0.7"/>
    </g>
    <g clip-path="url(#p47e711e209)">
     <use xlink:href="#C0_0_51bbd21a03" x="202.455217" y="218.509358" style="fill: #808080; fill-opacity: 0.7"/>
    </g>
    <g clip-path="url(#p47e711e209)">
     <use xlink:href="#C0_0_51bbd21a03" x="296.375243" y="49.337671" style="fill: #808080; fill-opacity: 0.7"/>
    </g>
    <g clip-path="url(#p47e711e209)">
     <use xlink:href="#C0_0_51bbd21a03" x="273.022609" y="174.259971" style="fill: #808080; fill-opacity: 0.7"/>
    </g>
    <g clip-path="url(#p47e711e209)">
     <use xlink:href="#C0_0_51bbd21a03" x="214.777225" y="150.889596" style="fill: #808080; fill-opacity: 0.7"/>
    </g>
    <g clip-path="url(#p47e711e209)">
     <use xlink:href="#C0_0_51bbd21a03" x="248.76801" y="111.227549" style="fill: #808080; fill-opacity: 0.7"/>
    </g>
    <g clip-path="url(#p47e711e209)">
     <use xlink:href="#C0_0_51bbd21a03" x="195.540373" y="147.593745" style="fill: #808080; fill-opacity: 0.7"/>
    </g>
    <g clip-path="url(#p47e711e209)">
     <use xlink:href="#C0_0_51bbd21a03" x="341.559408" y="147.984682" style="fill: #808080; fill-opacity: 0.7"/>
    </g>
    <g clip-path="url(#p47e711e209)">
     <use xlink:href="#C0_0_51bbd21a03" x="247.210114" y="201.64775" style="fill: #808080; fill-opacity: 0.7"/>
    </g>
    <g clip-path="url(#p47e711e209)">
     <use xlink:href="#C0_0_51bbd21a03" x="387.453153" y="42.540611" style="fill: #808080; fill-opacity: 0.7"/>
    </g>
    <g clip-path="url(#p47e711e209)">
     <use xlink:href="#C0_0_51bbd21a03" x="294.861482" y="163.679692" style="fill: #808080; fill-opacity: 0.7"/>
    </g>
    <g clip-path="url(#p47e711e209)">
     <use xlink:href="#C0_0_51bbd21a03" x="273.280347" y="71.932083" style="fill: #808080; fill-opacity: 0.7"/>
    </g>
    <g clip-path="url(#p47e711e209)">
     <use xlink:href="#C0_0_51bbd21a03" x="241.632355" y="223.295801" style="fill: #808080; fill-opacity: 0.7"/>
    </g>
    <g clip-path="url(#p47e711e209)">
     <use xlink:href="#C0_0_51bbd21a03" x="328.669018" y="126.684597" style="fill: #808080; fill-opacity: 0.7"/>
    </g>
    <g clip-path="url(#p47e711e209)">
     <use xlink:href="#C0_0_51bbd21a03" x="283.459523" y="69.035734" style="fill: #808080; fill-opacity: 0.7"/>
    </g>
    <g clip-path="url(#p47e711e209)">
     <use xlink:href="#C0_0_51bbd21a03" x="321.003323" y="264.251529" style="fill: #808080; fill-opacity: 0.7"/>
    </g>
    <g clip-path="url(#p47e711e209)">
     <use xlink:href="#C0_0_51bbd21a03" x="272.072432" y="184.187332" style="fill: #808080; fill-opacity: 0.7"/>
    </g>
    <g clip-path="url(#p47e711e209)">
     <use xlink:href="#C0_0_51bbd21a03" x="232.449048" y="140.096391" style="fill: #808080; fill-opacity: 0.7"/>
    </g>
    <g clip-path="url(#p47e711e209)">
     <use xlink:href="#C0_0_51bbd21a03" x="269.150939" y="256.652774" style="fill: #808080; fill-opacity: 0.7"/>
    </g>
    <g clip-path="url(#p47e711e209)">
     <use xlink:href="#C0_0_51bbd21a03" x="192.580311" y="192.14064" style="fill: #808080; fill-opacity: 0.7"/>
    </g>
    <g clip-path="url(#p47e711e209)">
     <use xlink:href="#C0_0_51bbd21a03" x="312.342428" y="123.110834" style="fill: #808080; fill-opacity: 0.7"/>
    </g>
    <g clip-path="url(#p47e711e209)">
     <use xlink:href="#C0_0_51bbd21a03" x="256.185645" y="144.118763" style="fill: #808080; fill-opacity: 0.7"/>
    </g>
    <g clip-path="url(#p47e711e209)">
     <use xlink:href="#C0_0_51bbd21a03" x="301.891124" y="140.852024" style="fill: #808080; fill-opacity: 0.7"/>
    </g>
    <g clip-path="url(#p47e711e209)">
     <use xlink:href="#C0_0_51bbd21a03" x="382.576929" y="133.596779" style="fill: #808080; fill-opacity: 0.7"/>
    </g>
    <g clip-path="url(#p47e711e209)">
     <use xlink:href="#C0_0_51bbd21a03" x="262.765451" y="152.330616" style="fill: #808080; fill-opacity: 0.7"/>
    </g>
    <g clip-path="url(#p47e711e209)">
     <use xlink:href="#C0_0_51bbd21a03" x="302.801575" y="118.920742" style="fill: #808080; fill-opacity: 0.7"/>
    </g>
    <g clip-path="url(#p47e711e209)">
     <use xlink:href="#C0_0_51bbd21a03" x="381.608254" y="191.007751" style="fill: #808080; fill-opacity: 0.7"/>
    </g>
    <g clip-path="url(#p47e711e209)">
     <use xlink:href="#C0_0_51bbd21a03" x="300.66544" y="203.232715" style="fill: #808080; fill-opacity: 0.7"/>
    </g>
    <g clip-path="url(#p47e711e209)">
     <use xlink:href="#C0_0_51bbd21a03" x="249.555035" y="255.25859" style="fill: #808080; fill-opacity: 0.7"/>
    </g>
    <g clip-path="url(#p47e711e209)">
     <use xlink:href="#C0_0_51bbd21a03" x="265.092695" y="230.381864" style="fill: #808080; fill-opacity: 0.7"/>
    </g>
    <g clip-path="url(#p47e711e209)">
     <use xlink:href="#C0_0_51bbd21a03" x="343.329887" y="144.609006" style="fill: #808080; fill-opacity: 0.7"/>
    </g>
    <g clip-path="url(#p47e711e209)">
     <use xlink:href="#C0_0_51bbd21a03" x="336.2316" y="134.495821" style="fill: #808080; fill-opacity: 0.7"/>
    </g>
    <g clip-path="url(#p47e711e209)">
     <use xlink:href="#C0_0_51bbd21a03" x="341.485987" y="185.616172" style="fill: #808080; fill-opacity: 0.7"/>
    </g>
    <g clip-path="url(#p47e711e209)">
     <use xlink:href="#C0_0_51bbd21a03" x="267.276957" y="185.074523" style="fill: #808080; fill-opacity: 0.7"/>
    </g>
    <g clip-path="url(#p47e711e209)">
     <use xlink:href="#C0_0_51bbd21a03" x="335.329375" y="47.784691" style="fill: #808080; fill-opacity: 0.7"/>
    </g>
    <g clip-path="url(#p47e711e209)">
     <use xlink:href="#C0_0_51bbd21a03" x="309.454003" y="115.401189" style="fill: #808080; fill-opacity: 0.7"/>
    </g>
    <g clip-path="url(#p47e711e209)">
     <use xlink:href="#C0_0_51bbd21a03" x="359.443773" y="135.809776" style="fill: #808080; fill-opacity: 0.7"/>
    </g>
   </g>
   <g id="matplotlib.axis_1">
    <g id="xtick_1">
     <g id="line2d_1">
      <path d="M 97.193125 329.76 
L 97.193125 14.4 
" clip-path="url(#p47e711e209)" style="fill: none; stroke-dasharray: 0.8,1.32; stroke-dashoffset: 0; stroke: #d3d3d3; stroke-opacity: 0.5; stroke-width: 0.8"/>
     </g>
     <g id="line2d_2">
      <defs>
       <path id="m7f49a0f3f9" d="M 0 0 
L 0 3.5 
" style="stroke: #000000; stroke-width: 0.8"/>
      </defs>
      <g>
       <use xlink:href="#m7f49a0f3f9" x="97.193125" y="329.76" style="stroke: #000000; stroke-width: 0.8"/>
      </g>
     </g>
     <g id="text_1">
      <!-- −1.0 -->
      <g transform="translate(72.910313 351.956875) scale(0.2 -0.2)">
       <defs>
        <path id="DejaVuSans-2212" d="M 678 2272 
L 4684 2272 
L 4684 1741 
L 678 1741 
L 678 2272 
z
" transform="scale(0.015625)"/>
        <path id="DejaVuSans-31" d="M 794 531 
L 1825 531 
L 1825 4091 
L 703 3866 
L 703 4441 
L 1819 4666 
L 2450 4666 
L 2450 531 
L 3481 531 
L 3481 0 
L 794 0 
L 794 531 
z
" transform="scale(0.015625)"/>
        <path id="DejaVuSans-2e" d="M 684 794 
L 1344 794 
L 1344 0 
L 684 0 
L 684 794 
z
" transform="scale(0.015625)"/>
        <path id="DejaVuSans-30" d="M 2034 4250 
Q 1547 4250 1301 3770 
Q 1056 3291 1056 2328 
Q 1056 1369 1301 889 
Q 1547 409 2034 409 
Q 2525 409 2770 889 
Q 3016 1369 3016 2328 
Q 3016 3291 2770 3770 
Q 2525 4250 2034 4250 
z
M 2034 4750 
Q 2819 4750 3233 4129 
Q 3647 3509 3647 2328 
Q 3647 1150 3233 529 
Q 2819 -91 2034 -91 
Q 1250 -91 836 529 
Q 422 1150 422 2328 
Q 422 3509 836 4129 
Q 1250 4750 2034 4750 
z
" transform="scale(0.015625)"/>
       </defs>
       <use xlink:href="#DejaVuSans-2212"/>
       <use xlink:href="#DejaVuSans-31" x="83.789062"/>
       <use xlink:href="#DejaVuSans-2e" x="147.412109"/>
       <use xlink:href="#DejaVuSans-30" x="179.199219"/>
      </g>
     </g>
    </g>
    <g id="xtick_2">
     <g id="line2d_3">
      <path d="M 176.033125 329.76 
L 176.033125 14.4 
" clip-path="url(#p47e711e209)" style="fill: none; stroke-dasharray: 0.8,1.32; stroke-dashoffset: 0; stroke: #d3d3d3; stroke-opacity: 0.5; stroke-width: 0.8"/>
     </g>
     <g id="line2d_4">
      <g>
       <use xlink:href="#m7f49a0f3f9" x="176.033125" y="329.76" style="stroke: #000000; stroke-width: 0.8"/>
      </g>
     </g>
     <g id="text_2">
      <!-- −0.5 -->
      <g transform="translate(151.750312 351.956875) scale(0.2 -0.2)">
       <defs>
        <path id="DejaVuSans-35" d="M 691 4666 
L 3169 4666 
L 3169 4134 
L 1269 4134 
L 1269 2991 
Q 1406 3038 1543 3061 
Q 1681 3084 1819 3084 
Q 2600 3084 3056 2656 
Q 3513 2228 3513 1497 
Q 3513 744 3044 326 
Q 2575 -91 1722 -91 
Q 1428 -91 1123 -41 
Q 819 9 494 109 
L 494 744 
Q 775 591 1075 516 
Q 1375 441 1709 441 
Q 2250 441 2565 725 
Q 2881 1009 2881 1497 
Q 2881 1984 2565 2268 
Q 2250 2553 1709 2553 
Q 1456 2553 1204 2497 
Q 953 2441 691 2322 
L 691 4666 
z
" transform="scale(0.015625)"/>
       </defs>
       <use xlink:href="#DejaVuSans-2212"/>
       <use xlink:href="#DejaVuSans-30" x="83.789062"/>
       <use xlink:href="#DejaVuSans-2e" x="147.412109"/>
       <use xlink:href="#DejaVuSans-35" x="179.199219"/>
      </g>
     </g>
    </g>
    <g id="xtick_3">
     <g id="line2d_5">
      <path d="M 254.873125 329.76 
L 254.873125 14.4 
" clip-path="url(#p47e711e209)" style="fill: none; stroke-dasharray: 0.8,1.32; stroke-dashoffset: 0; stroke: #d3d3d3; stroke-opacity: 0.5; stroke-width: 0.8"/>
     </g>
     <g id="line2d_6">
      <g>
       <use xlink:href="#m7f49a0f3f9" x="254.873125" y="329.76" style="stroke: #000000; stroke-width: 0.8"/>
      </g>
     </g>
     <g id="text_3">
      <!-- 0.0 -->
      <g transform="translate(238.97 351.956875) scale(0.2 -0.2)">
       <use xlink:href="#DejaVuSans-30"/>
       <use xlink:href="#DejaVuSans-2e" x="63.623047"/>
       <use xlink:href="#DejaVuSans-30" x="95.410156"/>
      </g>
     </g>
    </g>
    <g id="xtick_4">
     <g id="line2d_7">
      <path d="M 333.713125 329.76 
L 333.713125 14.4 
" clip-path="url(#p47e711e209)" style="fill: none; stroke-dasharray: 0.8,1.32; stroke-dashoffset: 0; stroke: #d3d3d3; stroke-opacity: 0.5; stroke-width: 0.8"/>
     </g>
     <g id="line2d_8">
      <g>
       <use xlink:href="#m7f49a0f3f9" x="333.713125" y="329.76" style="stroke: #000000; stroke-width: 0.8"/>
      </g>
     </g>
     <g id="text_4">
      <!-- 0.5 -->
      <g transform="translate(317.81 351.956875) scale(0.2 -0.2)">
       <use xlink:href="#DejaVuSans-30"/>
       <use xlink:href="#DejaVuSans-2e" x="63.623047"/>
       <use xlink:href="#DejaVuSans-35" x="95.410156"/>
      </g>
     </g>
    </g>
    <g id="xtick_5">
     <g id="line2d_9">
      <path d="M 412.553125 329.76 
L 412.553125 14.4 
" clip-path="url(#p47e711e209)" style="fill: none; stroke-dasharray: 0.8,1.32; stroke-dashoffset: 0; stroke: #d3d3d3; stroke-opacity: 0.5; stroke-width: 0.8"/>
     </g>
     <g id="line2d_10">
      <g>
       <use xlink:href="#m7f49a0f3f9" x="412.553125" y="329.76" style="stroke: #000000; stroke-width: 0.8"/>
      </g>
     </g>
     <g id="text_5">
      <!-- 1.0 -->
      <g transform="translate(396.65 351.956875) scale(0.2 -0.2)">
       <use xlink:href="#DejaVuSans-31"/>
       <use xlink:href="#DejaVuSans-2e" x="63.623047"/>
       <use xlink:href="#DejaVuSans-30" x="95.410156"/>
      </g>
     </g>
    </g>
    <g id="text_6">
     <!-- Feature selectivity index -->
     <g transform="translate(87.11125 378.3525) scale(0.24 -0.24)">
      <defs>
       <path id="DejaVuSans-Bold-46" d="M 588 4666 
L 3834 4666 
L 3834 3756 
L 1791 3756 
L 1791 2888 
L 3713 2888 
L 3713 1978 
L 1791 1978 
L 1791 0 
L 588 0 
L 588 4666 
z
" transform="scale(0.015625)"/>
       <path id="DejaVuSans-Bold-65" d="M 4031 1759 
L 4031 1441 
L 1416 1441 
Q 1456 1047 1700 850 
Q 1944 653 2381 653 
Q 2734 653 3104 758 
Q 3475 863 3866 1075 
L 3866 213 
Q 3469 63 3072 -14 
Q 2675 -91 2278 -91 
Q 1328 -91 801 392 
Q 275 875 275 1747 
Q 275 2603 792 3093 
Q 1309 3584 2216 3584 
Q 3041 3584 3536 3087 
Q 4031 2591 4031 1759 
z
M 2881 2131 
Q 2881 2450 2695 2645 
Q 2509 2841 2209 2841 
Q 1884 2841 1681 2658 
Q 1478 2475 1428 2131 
L 2881 2131 
z
" transform="scale(0.015625)"/>
       <path id="DejaVuSans-Bold-61" d="M 2106 1575 
Q 1756 1575 1579 1456 
Q 1403 1338 1403 1106 
Q 1403 894 1545 773 
Q 1688 653 1941 653 
Q 2256 653 2472 879 
Q 2688 1106 2688 1447 
L 2688 1575 
L 2106 1575 
z
M 3816 1997 
L 3816 0 
L 2688 0 
L 2688 519 
Q 2463 200 2181 54 
Q 1900 -91 1497 -91 
Q 953 -91 614 226 
Q 275 544 275 1050 
Q 275 1666 698 1953 
Q 1122 2241 2028 2241 
L 2688 2241 
L 2688 2328 
Q 2688 2594 2478 2717 
Q 2269 2841 1825 2841 
Q 1466 2841 1156 2769 
Q 847 2697 581 2553 
L 581 3406 
Q 941 3494 1303 3539 
Q 1666 3584 2028 3584 
Q 2975 3584 3395 3211 
Q 3816 2838 3816 1997 
z
" transform="scale(0.015625)"/>
       <path id="DejaVuSans-Bold-74" d="M 1759 4494 
L 1759 3500 
L 2913 3500 
L 2913 2700 
L 1759 2700 
L 1759 1216 
Q 1759 972 1856 886 
Q 1953 800 2241 800 
L 2816 800 
L 2816 0 
L 1856 0 
Q 1194 0 917 276 
Q 641 553 641 1216 
L 641 2700 
L 84 2700 
L 84 3500 
L 641 3500 
L 641 4494 
L 1759 4494 
z
" transform="scale(0.015625)"/>
       <path id="DejaVuSans-Bold-75" d="M 500 1363 
L 500 3500 
L 1625 3500 
L 1625 3150 
Q 1625 2866 1622 2436 
Q 1619 2006 1619 1863 
Q 1619 1441 1641 1255 
Q 1663 1069 1716 984 
Q 1784 875 1895 815 
Q 2006 756 2150 756 
Q 2500 756 2700 1025 
Q 2900 1294 2900 1772 
L 2900 3500 
L 4019 3500 
L 4019 0 
L 2900 0 
L 2900 506 
Q 2647 200 2364 54 
Q 2081 -91 1741 -91 
Q 1134 -91 817 281 
Q 500 653 500 1363 
z
" transform="scale(0.015625)"/>
       <path id="DejaVuSans-Bold-72" d="M 3138 2547 
Q 2991 2616 2845 2648 
Q 2700 2681 2553 2681 
Q 2122 2681 1889 2404 
Q 1656 2128 1656 1613 
L 1656 0 
L 538 0 
L 538 3500 
L 1656 3500 
L 1656 2925 
Q 1872 3269 2151 3426 
Q 2431 3584 2822 3584 
Q 2878 3584 2943 3579 
Q 3009 3575 3134 3559 
L 3138 2547 
z
" transform="scale(0.015625)"/>
       <path id="DejaVuSans-Bold-20" transform="scale(0.015625)"/>
       <path id="DejaVuSans-Bold-73" d="M 3272 3391 
L 3272 2541 
Q 2913 2691 2578 2766 
Q 2244 2841 1947 2841 
Q 1628 2841 1473 2761 
Q 1319 2681 1319 2516 
Q 1319 2381 1436 2309 
Q 1553 2238 1856 2203 
L 2053 2175 
Q 2913 2066 3209 1816 
Q 3506 1566 3506 1031 
Q 3506 472 3093 190 
Q 2681 -91 1863 -91 
Q 1516 -91 1145 -36 
Q 775 19 384 128 
L 384 978 
Q 719 816 1070 734 
Q 1422 653 1784 653 
Q 2113 653 2278 743 
Q 2444 834 2444 1013 
Q 2444 1163 2330 1236 
Q 2216 1309 1875 1350 
L 1678 1375 
Q 931 1469 631 1722 
Q 331 1975 331 2491 
Q 331 3047 712 3315 
Q 1094 3584 1881 3584 
Q 2191 3584 2531 3537 
Q 2872 3491 3272 3391 
z
" transform="scale(0.015625)"/>
       <path id="DejaVuSans-Bold-6c" d="M 538 4863 
L 1656 4863 
L 1656 0 
L 538 0 
L 538 4863 
z
" transform="scale(0.015625)"/>
       <path id="DejaVuSans-Bold-63" d="M 3366 3391 
L 3366 2478 
Q 3138 2634 2908 2709 
Q 2678 2784 2431 2784 
Q 1963 2784 1702 2511 
Q 1441 2238 1441 1747 
Q 1441 1256 1702 982 
Q 1963 709 2431 709 
Q 2694 709 2930 787 
Q 3166 866 3366 1019 
L 3366 103 
Q 3103 6 2833 -42 
Q 2563 -91 2291 -91 
Q 1344 -91 809 395 
Q 275 881 275 1747 
Q 275 2613 809 3098 
Q 1344 3584 2291 3584 
Q 2566 3584 2833 3536 
Q 3100 3488 3366 3391 
z
" transform="scale(0.015625)"/>
       <path id="DejaVuSans-Bold-69" d="M 538 3500 
L 1656 3500 
L 1656 0 
L 538 0 
L 538 3500 
z
M 538 4863 
L 1656 4863 
L 1656 3950 
L 538 3950 
L 538 4863 
z
" transform="scale(0.015625)"/>
       <path id="DejaVuSans-Bold-76" d="M 97 3500 
L 1216 3500 
L 2088 1081 
L 2956 3500 
L 4078 3500 
L 2700 0 
L 1472 0 
L 97 3500 
z
" transform="scale(0.015625)"/>
       <path id="DejaVuSans-Bold-79" d="M 78 3500 
L 1197 3500 
L 2138 1125 
L 2938 3500 
L 4056 3500 
L 2584 -331 
Q 2363 -916 2067 -1148 
Q 1772 -1381 1288 -1381 
L 641 -1381 
L 641 -647 
L 991 -647 
Q 1275 -647 1404 -556 
Q 1534 -466 1606 -231 
L 1638 -134 
L 78 3500 
z
" transform="scale(0.015625)"/>
       <path id="DejaVuSans-Bold-6e" d="M 4056 2131 
L 4056 0 
L 2931 0 
L 2931 347 
L 2931 1631 
Q 2931 2084 2911 2256 
Q 2891 2428 2841 2509 
Q 2775 2619 2662 2680 
Q 2550 2741 2406 2741 
Q 2056 2741 1856 2470 
Q 1656 2200 1656 1722 
L 1656 0 
L 538 0 
L 538 3500 
L 1656 3500 
L 1656 2988 
Q 1909 3294 2193 3439 
Q 2478 3584 2822 3584 
Q 3428 3584 3742 3212 
Q 4056 2841 4056 2131 
z
" transform="scale(0.015625)"/>
       <path id="DejaVuSans-Bold-64" d="M 2919 2988 
L 2919 4863 
L 4044 4863 
L 4044 0 
L 2919 0 
L 2919 506 
Q 2688 197 2409 53 
Q 2131 -91 1766 -91 
Q 1119 -91 703 423 
Q 288 938 288 1747 
Q 288 2556 703 3070 
Q 1119 3584 1766 3584 
Q 2128 3584 2408 3439 
Q 2688 3294 2919 2988 
z
M 2181 722 
Q 2541 722 2730 984 
Q 2919 1247 2919 1747 
Q 2919 2247 2730 2509 
Q 2541 2772 2181 2772 
Q 1825 2772 1636 2509 
Q 1447 2247 1447 1747 
Q 1447 1247 1636 984 
Q 1825 722 2181 722 
z
" transform="scale(0.015625)"/>
       <path id="DejaVuSans-Bold-78" d="M 1422 1791 
L 159 3500 
L 1344 3500 
L 2059 2463 
L 2784 3500 
L 3969 3500 
L 2706 1797 
L 4031 0 
L 2847 0 
L 2059 1106 
L 1281 0 
L 97 0 
L 1422 1791 
z
" transform="scale(0.015625)"/>
      </defs>
      <use xlink:href="#DejaVuSans-Bold-46"/>
      <use xlink:href="#DejaVuSans-Bold-65" x="64.310547"/>
      <use xlink:href="#DejaVuSans-Bold-61" x="132.132812"/>
      <use xlink:href="#DejaVuSans-Bold-74" x="199.613281"/>
      <use xlink:href="#DejaVuSans-Bold-75" x="247.416016"/>
      <use xlink:href="#DejaVuSans-Bold-72" x="318.607422"/>
      <use xlink:href="#DejaVuSans-Bold-65" x="367.923828"/>
      <use xlink:href="#DejaVuSans-Bold-20" x="435.746094"/>
      <use xlink:href="#DejaVuSans-Bold-73" x="470.560547"/>
      <use xlink:href="#DejaVuSans-Bold-65" x="530.082031"/>
      <use xlink:href="#DejaVuSans-Bold-6c" x="597.904297"/>
      <use xlink:href="#DejaVuSans-Bold-65" x="632.181641"/>
      <use xlink:href="#DejaVuSans-Bold-63" x="700.003906"/>
      <use xlink:href="#DejaVuSans-Bold-74" x="759.28125"/>
      <use xlink:href="#DejaVuSans-Bold-69" x="807.083984"/>
      <use xlink:href="#DejaVuSans-Bold-76" x="841.361328"/>
      <use xlink:href="#DejaVuSans-Bold-69" x="906.546875"/>
      <use xlink:href="#DejaVuSans-Bold-74" x="940.824219"/>
      <use xlink:href="#DejaVuSans-Bold-79" x="988.626953"/>
      <use xlink:href="#DejaVuSans-Bold-20" x="1053.8125"/>
      <use xlink:href="#DejaVuSans-Bold-69" x="1088.626953"/>
      <use xlink:href="#DejaVuSans-Bold-6e" x="1122.904297"/>
      <use xlink:href="#DejaVuSans-Bold-64" x="1194.095703"/>
      <use xlink:href="#DejaVuSans-Bold-65" x="1265.677734"/>
      <use xlink:href="#DejaVuSans-Bold-78" x="1333.5"/>
     </g>
    </g>
   </g>
   <g id="matplotlib.axis_2">
    <g id="ytick_1">
     <g id="line2d_11">
      <path d="M 97.193125 257.152933 
L 412.553125 257.152933 
" clip-path="url(#p47e711e209)" style="fill: none; stroke-dasharray: 0.8,1.32; stroke-dashoffset: 0; stroke: #d3d3d3; stroke-opacity: 0.5; stroke-width: 0.8"/>
     </g>
     <g id="line2d_12">
      <defs>
       <path id="m839ff33c36" d="M 0 0 
L -3.5 0 
" style="stroke: #000000; stroke-width: 0.8"/>
      </defs>
      <g>
       <use xlink:href="#m839ff33c36" x="97.193125" y="257.152933" style="stroke: #000000; stroke-width: 0.8"/>
      </g>
     </g>
     <g id="text_7">
      <!-- −0.1 -->
      <g transform="translate(41.6275 264.751371) scale(0.2 -0.2)">
       <use xlink:href="#DejaVuSans-2212"/>
       <use xlink:href="#DejaVuSans-30" x="83.789062"/>
       <use xlink:href="#DejaVuSans-2e" x="147.412109"/>
       <use xlink:href="#DejaVuSans-31" x="179.199219"/>
      </g>
     </g>
    </g>
    <g id="ytick_2">
     <g id="line2d_13">
      <path d="M 97.193125 169.113579 
L 412.553125 169.113579 
" clip-path="url(#p47e711e209)" style="fill: none; stroke-dasharray: 0.8,1.32; stroke-dashoffset: 0; stroke: #d3d3d3; stroke-opacity: 0.5; stroke-width: 0.8"/>
     </g>
     <g id="line2d_14">
      <g>
       <use xlink:href="#m839ff33c36" x="97.193125" y="169.113579" style="stroke: #000000; stroke-width: 0.8"/>
      </g>
     </g>
     <g id="text_8">
      <!-- 0.0 -->
      <g transform="translate(58.386875 176.712016) scale(0.2 -0.2)">
       <use xlink:href="#DejaVuSans-30"/>
       <use xlink:href="#DejaVuSans-2e" x="63.623047"/>
       <use xlink:href="#DejaVuSans-30" x="95.410156"/>
      </g>
     </g>
    </g>
    <g id="ytick_3">
     <g id="line2d_15">
      <path d="M 97.193125 81.074225 
L 412.553125 81.074225 
" clip-path="url(#p47e711e209)" style="fill: none; stroke-dasharray: 0.8,1.32; stroke-dashoffset: 0; stroke: #d3d3d3; stroke-opacity: 0.5; stroke-width: 0.8"/>
     </g>
     <g id="line2d_16">
      <g>
       <use xlink:href="#m839ff33c36" x="97.193125" y="81.074225" style="stroke: #000000; stroke-width: 0.8"/>
      </g>
     </g>
     <g id="text_9">
      <!-- 0.1 -->
      <g transform="translate(58.386875 88.672662) scale(0.2 -0.2)">
       <use xlink:href="#DejaVuSans-30"/>
       <use xlink:href="#DejaVuSans-2e" x="63.623047"/>
       <use xlink:href="#DejaVuSans-31" x="95.410156"/>
      </g>
     </g>
    </g>
    <g id="text_10">
     <!-- Gain modulation -->
     <g transform="translate(32.63625 283.59) rotate(-90) scale(0.24 -0.24)">
      <defs>
       <path id="DejaVuSans-Bold-47" d="M 4781 347 
Q 4331 128 3847 18 
Q 3363 -91 2847 -91 
Q 1681 -91 1000 561 
Q 319 1213 319 2328 
Q 319 3456 1012 4103 
Q 1706 4750 2913 4750 
Q 3378 4750 3804 4662 
Q 4231 4575 4609 4403 
L 4609 3438 
Q 4219 3659 3833 3768 
Q 3447 3878 3059 3878 
Q 2341 3878 1952 3476 
Q 1563 3075 1563 2328 
Q 1563 1588 1938 1184 
Q 2313 781 3003 781 
Q 3191 781 3352 804 
Q 3513 828 3641 878 
L 3641 1784 
L 2906 1784 
L 2906 2591 
L 4781 2591 
L 4781 347 
z
" transform="scale(0.015625)"/>
       <path id="DejaVuSans-Bold-6d" d="M 3781 2919 
Q 3994 3244 4286 3414 
Q 4578 3584 4928 3584 
Q 5531 3584 5847 3212 
Q 6163 2841 6163 2131 
L 6163 0 
L 5038 0 
L 5038 1825 
Q 5041 1866 5042 1909 
Q 5044 1953 5044 2034 
Q 5044 2406 4934 2573 
Q 4825 2741 4581 2741 
Q 4263 2741 4089 2478 
Q 3916 2216 3909 1719 
L 3909 0 
L 2784 0 
L 2784 1825 
Q 2784 2406 2684 2573 
Q 2584 2741 2328 2741 
Q 2006 2741 1831 2477 
Q 1656 2213 1656 1722 
L 1656 0 
L 531 0 
L 531 3500 
L 1656 3500 
L 1656 2988 
Q 1863 3284 2130 3434 
Q 2397 3584 2719 3584 
Q 3081 3584 3359 3409 
Q 3638 3234 3781 2919 
z
" transform="scale(0.015625)"/>
       <path id="DejaVuSans-Bold-6f" d="M 2203 2784 
Q 1831 2784 1636 2517 
Q 1441 2250 1441 1747 
Q 1441 1244 1636 976 
Q 1831 709 2203 709 
Q 2569 709 2762 976 
Q 2956 1244 2956 1747 
Q 2956 2250 2762 2517 
Q 2569 2784 2203 2784 
z
M 2203 3584 
Q 3106 3584 3614 3096 
Q 4122 2609 4122 1747 
Q 4122 884 3614 396 
Q 3106 -91 2203 -91 
Q 1297 -91 786 396 
Q 275 884 275 1747 
Q 275 2609 786 3096 
Q 1297 3584 2203 3584 
z
" transform="scale(0.015625)"/>
      </defs>
      <use xlink:href="#DejaVuSans-Bold-47"/>
      <use xlink:href="#DejaVuSans-Bold-61" x="82.080078"/>
      <use xlink:href="#DejaVuSans-Bold-69" x="149.560547"/>
      <use xlink:href="#DejaVuSans-Bold-6e" x="183.837891"/>
      <use xlink:href="#DejaVuSans-Bold-20" x="255.029297"/>
      <use xlink:href="#DejaVuSans-Bold-6d" x="289.84375"/>
      <use xlink:href="#DejaVuSans-Bold-6f" x="394.042969"/>
      <use xlink:href="#DejaVuSans-Bold-64" x="462.744141"/>
      <use xlink:href="#DejaVuSans-Bold-75" x="534.326172"/>
      <use xlink:href="#DejaVuSans-Bold-6c" x="605.517578"/>
      <use xlink:href="#DejaVuSans-Bold-61" x="639.794922"/>
      <use xlink:href="#DejaVuSans-Bold-74" x="707.275391"/>
      <use xlink:href="#DejaVuSans-Bold-69" x="755.078125"/>
      <use xlink:href="#DejaVuSans-Bold-6f" x="789.355469"/>
      <use xlink:href="#DejaVuSans-Bold-6e" x="858.056641"/>
     </g>
    </g>
   </g>
   <g id="line2d_17">
    <path d="M 97.193125 169.113579 
L 412.553125 169.113579 
" clip-path="url(#p47e711e209)" style="fill: none; stroke-dasharray: 7.4,3.2; stroke-dashoffset: 0; stroke: #000000; stroke-opacity: 0.7; stroke-width: 2"/>
   </g>
   <g id="patch_3">
    <path d="M 97.193125 329.76 
L 97.193125 14.4 
" style="fill: none; stroke: #000000; stroke-width: 0.8; stroke-linejoin: miter; stroke-linecap: square"/>
   </g>
   <g id="patch_4">
    <path d="M 412.553125 329.76 
L 412.553125 14.4 
" style="fill: none; stroke: #000000; stroke-width: 0.8; stroke-linejoin: miter; stroke-linecap: square"/>
   </g>
   <g id="patch_5">
    <path d="M 97.193125 329.76 
L 412.553125 329.76 
" style="fill: none; stroke: #000000; stroke-width: 0.8; stroke-linejoin: miter; stroke-linecap: square"/>
   </g>
   <g id="patch_6">
    <path d="M 97.193125 14.4 
L 412.553125 14.4 
" style="fill: none; stroke: #000000; stroke-width: 0.8; stroke-linejoin: miter; stroke-linecap: square"/>
   </g>
  </g>
 </g>
 <defs>
  <clipPath id="p47e711e209">
   <rect x="97.193125" y="14.4" width="315.36" height="315.36"/>
  </clipPath>
 </defs>
</svg>
