<?xml version="1.0" encoding="utf-8" standalone="no"?>
<!DOCTYPE svg PUBLIC "-//W3C//DTD SVG 1.1//EN"
  "http://www.w3.org/Graphics/SVG/1.1/DTD/svg11.dtd">
<svg xmlns:xlink="http://www.w3.org/1999/xlink" width="423.098125pt" height="494.43625pt" viewBox="0 0 423.098125 494.43625" xmlns="http://www.w3.org/2000/svg" version="1.1">
 <metadata>
  <rdf:RDF xmlns:dc="http://purl.org/dc/elements/1.1/" xmlns:cc="http://creativecommons.org/ns#" xmlns:rdf="http://www.w3.org/1999/02/22-rdf-syntax-ns#">
   <cc:Work>
    <dc:type rdf:resource="http://purl.org/dc/dcmitype/StillImage"/>
    <dc:date>2025-05-17T00:45:28.160300</dc:date>
    <dc:format>image/svg+xml</dc:format>
    <dc:creator>
     <cc:Agent>
      <dc:title>Matplotlib v3.9.2, https://matplotlib.org/</dc:title>
     </cc:Agent>
    </dc:creator>
   </cc:Work>
  </rdf:RDF>
 </metadata>
 <defs>
  <style type="text/css">*{stroke-linejoin: round; stroke-linecap: butt}</style>
 </defs>
 <g id="figure_1">
  <g id="patch_1">
   <path d="M 0 494.43625 
L 423.098125 494.43625 
L 423.098125 0 
L 0 0 
z
" style="fill: #ffffff"/>
  </g>
  <g id="axes_1">
   <g id="patch_2">
    <path d="M 43.903125 224.708125 
L 415.898125 224.708125 
L 415.898125 22.318125 
L 43.903125 22.318125 
z
" style="fill: #ffffff"/>
   </g>
   <g id="matplotlib.axis_1">
    <g id="xtick_1">
     <g id="line2d_1">
      <defs>
       <path id="ma13938bfa1" d="M 0 0 
L 0 3.5 
" style="stroke: #000000; stroke-width: 0.8"/>
      </defs>
      <g>
       <use xlink:href="#ma13938bfa1" x="64.569514" y="224.708125" style="stroke: #000000; stroke-width: 0.8"/>
      </g>
     </g>
    </g>
    <g id="xtick_2">
     <g id="line2d_2">
      <g>
       <use xlink:href="#ma13938bfa1" x="105.902292" y="224.708125" style="stroke: #000000; stroke-width: 0.8"/>
      </g>
     </g>
    </g>
    <g id="xtick_3">
     <g id="line2d_3">
      <g>
       <use xlink:href="#ma13938bfa1" x="147.235069" y="224.708125" style="stroke: #000000; stroke-width: 0.8"/>
      </g>
     </g>
    </g>
    <g id="xtick_4">
     <g id="line2d_4">
      <g>
       <use xlink:href="#ma13938bfa1" x="188.567847" y="224.708125" style="stroke: #000000; stroke-width: 0.8"/>
      </g>
     </g>
    </g>
    <g id="xtick_5">
     <g id="line2d_5">
      <g>
       <use xlink:href="#ma13938bfa1" x="229.900625" y="224.708125" style="stroke: #000000; stroke-width: 0.8"/>
      </g>
     </g>
    </g>
    <g id="xtick_6">
     <g id="line2d_6">
      <g>
       <use xlink:href="#ma13938bfa1" x="271.233403" y="224.708125" style="stroke: #000000; stroke-width: 0.8"/>
      </g>
     </g>
    </g>
    <g id="xtick_7">
     <g id="line2d_7">
      <g>
       <use xlink:href="#ma13938bfa1" x="312.566181" y="224.708125" style="stroke: #000000; stroke-width: 0.8"/>
      </g>
     </g>
    </g>
    <g id="xtick_8">
     <g id="line2d_8">
      <g>
       <use xlink:href="#ma13938bfa1" x="353.898958" y="224.708125" style="stroke: #000000; stroke-width: 0.8"/>
      </g>
     </g>
    </g>
    <g id="xtick_9">
     <g id="line2d_9">
      <g>
       <use xlink:href="#ma13938bfa1" x="395.231736" y="224.708125" style="stroke: #000000; stroke-width: 0.8"/>
      </g>
     </g>
    </g>
   </g>
   <g id="matplotlib.axis_2">
    <g id="ytick_1">
     <g id="line2d_10">
      <defs>
       <path id="m6c5958fabc" d="M 0 0 
L -3.5 0 
" style="stroke: #000000; stroke-width: 0.8"/>
      </defs>
      <g>
       <use xlink:href="#m6c5958fabc" x="43.903125" y="215.50858" style="stroke: #000000; stroke-width: 0.8"/>
      </g>
     </g>
     <g id="text_1">
      <!-- 0.0 -->
      <g transform="translate(21 219.307798) scale(0.1 -0.1)">
       <defs>
        <path id="DejaVuSans-30" d="M 2034 4250 
Q 1547 4250 1301 3770 
Q 1056 3291 1056 2328 
Q 1056 1369 1301 889 
Q 1547 409 2034 409 
Q 2525 409 2770 889 
Q 3016 1369 3016 2328 
Q 3016 3291 2770 3770 
Q 2525 4250 2034 4250 
z
M 2034 4750 
Q 2819 4750 3233 4129 
Q 3647 3509 3647 2328 
Q 3647 1150 3233 529 
Q 2819 -91 2034 -91 
Q 1250 -91 836 529 
Q 422 1150 422 2328 
Q 422 3509 836 4129 
Q 1250 4750 2034 4750 
z
" transform="scale(0.015625)"/>
        <path id="DejaVuSans-2e" d="M 684 794 
L 1344 794 
L 1344 0 
L 684 0 
L 684 794 
z
" transform="scale(0.015625)"/>
       </defs>
       <use xlink:href="#DejaVuSans-30"/>
       <use xlink:href="#DejaVuSans-2e" x="63.623047"/>
       <use xlink:href="#DejaVuSans-30" x="95.410156"/>
      </g>
     </g>
    </g>
    <g id="ytick_2">
     <g id="line2d_11">
      <g>
       <use xlink:href="#m6c5958fabc" x="43.903125" y="182.390216" style="stroke: #000000; stroke-width: 0.8"/>
      </g>
     </g>
     <g id="text_2">
      <!-- 0.5 -->
      <g transform="translate(21 186.189435) scale(0.1 -0.1)">
       <defs>
        <path id="DejaVuSans-35" d="M 691 4666 
L 3169 4666 
L 3169 4134 
L 1269 4134 
L 1269 2991 
Q 1406 3038 1543 3061 
Q 1681 3084 1819 3084 
Q 2600 3084 3056 2656 
Q 3513 2228 3513 1497 
Q 3513 744 3044 326 
Q 2575 -91 1722 -91 
Q 1428 -91 1123 -41 
Q 819 9 494 109 
L 494 744 
Q 775 591 1075 516 
Q 1375 441 1709 441 
Q 2250 441 2565 725 
Q 2881 1009 2881 1497 
Q 2881 1984 2565 2268 
Q 2250 2553 1709 2553 
Q 1456 2553 1204 2497 
Q 953 2441 691 2322 
L 691 4666 
z
" transform="scale(0.015625)"/>
       </defs>
       <use xlink:href="#DejaVuSans-30"/>
       <use xlink:href="#DejaVuSans-2e" x="63.623047"/>
       <use xlink:href="#DejaVuSans-35" x="95.410156"/>
      </g>
     </g>
    </g>
    <g id="ytick_3">
     <g id="line2d_12">
      <g>
       <use xlink:href="#m6c5958fabc" x="43.903125" y="149.271852" style="stroke: #000000; stroke-width: 0.8"/>
      </g>
     </g>
     <g id="text_3">
      <!-- 1.0 -->
      <g transform="translate(21 153.071071) scale(0.1 -0.1)">
       <defs>
        <path id="DejaVuSans-31" d="M 794 531 
L 1825 531 
L 1825 4091 
L 703 3866 
L 703 4441 
L 1819 4666 
L 2450 4666 
L 2450 531 
L 3481 531 
L 3481 0 
L 794 0 
L 794 531 
z
" transform="scale(0.015625)"/>
       </defs>
       <use xlink:href="#DejaVuSans-31"/>
       <use xlink:href="#DejaVuSans-2e" x="63.623047"/>
       <use xlink:href="#DejaVuSans-30" x="95.410156"/>
      </g>
     </g>
    </g>
    <g id="ytick_4">
     <g id="line2d_13">
      <g>
       <use xlink:href="#m6c5958fabc" x="43.903125" y="116.153489" style="stroke: #000000; stroke-width: 0.8"/>
      </g>
     </g>
     <g id="text_4">
      <!-- 1.5 -->
      <g transform="translate(21 119.952707) scale(0.1 -0.1)">
       <use xlink:href="#DejaVuSans-31"/>
       <use xlink:href="#DejaVuSans-2e" x="63.623047"/>
       <use xlink:href="#DejaVuSans-35" x="95.410156"/>
      </g>
     </g>
    </g>
    <g id="ytick_5">
     <g id="line2d_14">
      <g>
       <use xlink:href="#m6c5958fabc" x="43.903125" y="83.035125" style="stroke: #000000; stroke-width: 0.8"/>
      </g>
     </g>
     <g id="text_5">
      <!-- 2.0 -->
      <g transform="translate(21 86.834344) scale(0.1 -0.1)">
       <defs>
        <path id="DejaVuSans-32" d="M 1228 531 
L 3431 531 
L 3431 0 
L 469 0 
L 469 531 
Q 828 903 1448 1529 
Q 2069 2156 2228 2338 
Q 2531 2678 2651 2914 
Q 2772 3150 2772 3378 
Q 2772 3750 2511 3984 
Q 2250 4219 1831 4219 
Q 1534 4219 1204 4116 
Q 875 4013 500 3803 
L 500 4441 
Q 881 4594 1212 4672 
Q 1544 4750 1819 4750 
Q 2544 4750 2975 4387 
Q 3406 4025 3406 3419 
Q 3406 3131 3298 2873 
Q 3191 2616 2906 2266 
Q 2828 2175 2409 1742 
Q 1991 1309 1228 531 
z
" transform="scale(0.015625)"/>
       </defs>
       <use xlink:href="#DejaVuSans-32"/>
       <use xlink:href="#DejaVuSans-2e" x="63.623047"/>
       <use xlink:href="#DejaVuSans-30" x="95.410156"/>
      </g>
     </g>
    </g>
    <g id="ytick_6">
     <g id="line2d_15">
      <g>
       <use xlink:href="#m6c5958fabc" x="43.903125" y="49.916761" style="stroke: #000000; stroke-width: 0.8"/>
      </g>
     </g>
     <g id="text_6">
      <!-- 2.5 -->
      <g transform="translate(21 53.71598) scale(0.1 -0.1)">
       <use xlink:href="#DejaVuSans-32"/>
       <use xlink:href="#DejaVuSans-2e" x="63.623047"/>
       <use xlink:href="#DejaVuSans-35" x="95.410156"/>
      </g>
     </g>
    </g>
    <g id="text_7">
     <!-- Response Variance (Normalized) -->
     <g transform="translate(14.920312 204.562344) rotate(-90) scale(0.1 -0.1)">
      <defs>
       <path id="DejaVuSans-52" d="M 2841 2188 
Q 3044 2119 3236 1894 
Q 3428 1669 3622 1275 
L 4263 0 
L 3584 0 
L 2988 1197 
Q 2756 1666 2539 1819 
Q 2322 1972 1947 1972 
L 1259 1972 
L 1259 0 
L 628 0 
L 628 4666 
L 2053 4666 
Q 2853 4666 3247 4331 
Q 3641 3997 3641 3322 
Q 3641 2881 3436 2590 
Q 3231 2300 2841 2188 
z
M 1259 4147 
L 1259 2491 
L 2053 2491 
Q 2509 2491 2742 2702 
Q 2975 2913 2975 3322 
Q 2975 3731 2742 3939 
Q 2509 4147 2053 4147 
L 1259 4147 
z
" transform="scale(0.015625)"/>
       <path id="DejaVuSans-65" d="M 3597 1894 
L 3597 1613 
L 953 1613 
Q 991 1019 1311 708 
Q 1631 397 2203 397 
Q 2534 397 2845 478 
Q 3156 559 3463 722 
L 3463 178 
Q 3153 47 2828 -22 
Q 2503 -91 2169 -91 
Q 1331 -91 842 396 
Q 353 884 353 1716 
Q 353 2575 817 3079 
Q 1281 3584 2069 3584 
Q 2775 3584 3186 3129 
Q 3597 2675 3597 1894 
z
M 3022 2063 
Q 3016 2534 2758 2815 
Q 2500 3097 2075 3097 
Q 1594 3097 1305 2825 
Q 1016 2553 972 2059 
L 3022 2063 
z
" transform="scale(0.015625)"/>
       <path id="DejaVuSans-73" d="M 2834 3397 
L 2834 2853 
Q 2591 2978 2328 3040 
Q 2066 3103 1784 3103 
Q 1356 3103 1142 2972 
Q 928 2841 928 2578 
Q 928 2378 1081 2264 
Q 1234 2150 1697 2047 
L 1894 2003 
Q 2506 1872 2764 1633 
Q 3022 1394 3022 966 
Q 3022 478 2636 193 
Q 2250 -91 1575 -91 
Q 1294 -91 989 -36 
Q 684 19 347 128 
L 347 722 
Q 666 556 975 473 
Q 1284 391 1588 391 
Q 1994 391 2212 530 
Q 2431 669 2431 922 
Q 2431 1156 2273 1281 
Q 2116 1406 1581 1522 
L 1381 1569 
Q 847 1681 609 1914 
Q 372 2147 372 2553 
Q 372 3047 722 3315 
Q 1072 3584 1716 3584 
Q 2034 3584 2315 3537 
Q 2597 3491 2834 3397 
z
" transform="scale(0.015625)"/>
       <path id="DejaVuSans-70" d="M 1159 525 
L 1159 -1331 
L 581 -1331 
L 581 3500 
L 1159 3500 
L 1159 2969 
Q 1341 3281 1617 3432 
Q 1894 3584 2278 3584 
Q 2916 3584 3314 3078 
Q 3713 2572 3713 1747 
Q 3713 922 3314 415 
Q 2916 -91 2278 -91 
Q 1894 -91 1617 61 
Q 1341 213 1159 525 
z
M 3116 1747 
Q 3116 2381 2855 2742 
Q 2594 3103 2138 3103 
Q 1681 3103 1420 2742 
Q 1159 2381 1159 1747 
Q 1159 1113 1420 752 
Q 1681 391 2138 391 
Q 2594 391 2855 752 
Q 3116 1113 3116 1747 
z
" transform="scale(0.015625)"/>
       <path id="DejaVuSans-6f" d="M 1959 3097 
Q 1497 3097 1228 2736 
Q 959 2375 959 1747 
Q 959 1119 1226 758 
Q 1494 397 1959 397 
Q 2419 397 2687 759 
Q 2956 1122 2956 1747 
Q 2956 2369 2687 2733 
Q 2419 3097 1959 3097 
z
M 1959 3584 
Q 2709 3584 3137 3096 
Q 3566 2609 3566 1747 
Q 3566 888 3137 398 
Q 2709 -91 1959 -91 
Q 1206 -91 779 398 
Q 353 888 353 1747 
Q 353 2609 779 3096 
Q 1206 3584 1959 3584 
z
" transform="scale(0.015625)"/>
       <path id="DejaVuSans-6e" d="M 3513 2113 
L 3513 0 
L 2938 0 
L 2938 2094 
Q 2938 2591 2744 2837 
Q 2550 3084 2163 3084 
Q 1697 3084 1428 2787 
Q 1159 2491 1159 1978 
L 1159 0 
L 581 0 
L 581 3500 
L 1159 3500 
L 1159 2956 
Q 1366 3272 1645 3428 
Q 1925 3584 2291 3584 
Q 2894 3584 3203 3211 
Q 3513 2838 3513 2113 
z
" transform="scale(0.015625)"/>
       <path id="DejaVuSans-20" transform="scale(0.015625)"/>
       <path id="DejaVuSans-56" d="M 1831 0 
L 50 4666 
L 709 4666 
L 2188 738 
L 3669 4666 
L 4325 4666 
L 2547 0 
L 1831 0 
z
" transform="scale(0.015625)"/>
       <path id="DejaVuSans-61" d="M 2194 1759 
Q 1497 1759 1228 1600 
Q 959 1441 959 1056 
Q 959 750 1161 570 
Q 1363 391 1709 391 
Q 2188 391 2477 730 
Q 2766 1069 2766 1631 
L 2766 1759 
L 2194 1759 
z
M 3341 1997 
L 3341 0 
L 2766 0 
L 2766 531 
Q 2569 213 2275 61 
Q 1981 -91 1556 -91 
Q 1019 -91 701 211 
Q 384 513 384 1019 
Q 384 1609 779 1909 
Q 1175 2209 1959 2209 
L 2766 2209 
L 2766 2266 
Q 2766 2663 2505 2880 
Q 2244 3097 1772 3097 
Q 1472 3097 1187 3025 
Q 903 2953 641 2809 
L 641 3341 
Q 956 3463 1253 3523 
Q 1550 3584 1831 3584 
Q 2591 3584 2966 3190 
Q 3341 2797 3341 1997 
z
" transform="scale(0.015625)"/>
       <path id="DejaVuSans-72" d="M 2631 2963 
Q 2534 3019 2420 3045 
Q 2306 3072 2169 3072 
Q 1681 3072 1420 2755 
Q 1159 2438 1159 1844 
L 1159 0 
L 581 0 
L 581 3500 
L 1159 3500 
L 1159 2956 
Q 1341 3275 1631 3429 
Q 1922 3584 2338 3584 
Q 2397 3584 2469 3576 
Q 2541 3569 2628 3553 
L 2631 2963 
z
" transform="scale(0.015625)"/>
       <path id="DejaVuSans-69" d="M 603 3500 
L 1178 3500 
L 1178 0 
L 603 0 
L 603 3500 
z
M 603 4863 
L 1178 4863 
L 1178 4134 
L 603 4134 
L 603 4863 
z
" transform="scale(0.015625)"/>
       <path id="DejaVuSans-63" d="M 3122 3366 
L 3122 2828 
Q 2878 2963 2633 3030 
Q 2388 3097 2138 3097 
Q 1578 3097 1268 2742 
Q 959 2388 959 1747 
Q 959 1106 1268 751 
Q 1578 397 2138 397 
Q 2388 397 2633 464 
Q 2878 531 3122 666 
L 3122 134 
Q 2881 22 2623 -34 
Q 2366 -91 2075 -91 
Q 1284 -91 818 406 
Q 353 903 353 1747 
Q 353 2603 823 3093 
Q 1294 3584 2113 3584 
Q 2378 3584 2631 3529 
Q 2884 3475 3122 3366 
z
" transform="scale(0.015625)"/>
       <path id="DejaVuSans-28" d="M 1984 4856 
Q 1566 4138 1362 3434 
Q 1159 2731 1159 2009 
Q 1159 1288 1364 580 
Q 1569 -128 1984 -844 
L 1484 -844 
Q 1016 -109 783 600 
Q 550 1309 550 2009 
Q 550 2706 781 3412 
Q 1013 4119 1484 4856 
L 1984 4856 
z
" transform="scale(0.015625)"/>
       <path id="DejaVuSans-4e" d="M 628 4666 
L 1478 4666 
L 3547 763 
L 3547 4666 
L 4159 4666 
L 4159 0 
L 3309 0 
L 1241 3903 
L 1241 0 
L 628 0 
L 628 4666 
z
" transform="scale(0.015625)"/>
       <path id="DejaVuSans-6d" d="M 3328 2828 
Q 3544 3216 3844 3400 
Q 4144 3584 4550 3584 
Q 5097 3584 5394 3201 
Q 5691 2819 5691 2113 
L 5691 0 
L 5113 0 
L 5113 2094 
Q 5113 2597 4934 2840 
Q 4756 3084 4391 3084 
Q 3944 3084 3684 2787 
Q 3425 2491 3425 1978 
L 3425 0 
L 2847 0 
L 2847 2094 
Q 2847 2600 2669 2842 
Q 2491 3084 2119 3084 
Q 1678 3084 1418 2786 
Q 1159 2488 1159 1978 
L 1159 0 
L 581 0 
L 581 3500 
L 1159 3500 
L 1159 2956 
Q 1356 3278 1631 3431 
Q 1906 3584 2284 3584 
Q 2666 3584 2933 3390 
Q 3200 3197 3328 2828 
z
" transform="scale(0.015625)"/>
       <path id="DejaVuSans-6c" d="M 603 4863 
L 1178 4863 
L 1178 0 
L 603 0 
L 603 4863 
z
" transform="scale(0.015625)"/>
       <path id="DejaVuSans-7a" d="M 353 3500 
L 3084 3500 
L 3084 2975 
L 922 459 
L 3084 459 
L 3084 0 
L 275 0 
L 275 525 
L 2438 3041 
L 353 3041 
L 353 3500 
z
" transform="scale(0.015625)"/>
       <path id="DejaVuSans-64" d="M 2906 2969 
L 2906 4863 
L 3481 4863 
L 3481 0 
L 2906 0 
L 2906 525 
Q 2725 213 2448 61 
Q 2172 -91 1784 -91 
Q 1150 -91 751 415 
Q 353 922 353 1747 
Q 353 2572 751 3078 
Q 1150 3584 1784 3584 
Q 2172 3584 2448 3432 
Q 2725 3281 2906 2969 
z
M 947 1747 
Q 947 1113 1208 752 
Q 1469 391 1925 391 
Q 2381 391 2643 752 
Q 2906 1113 2906 1747 
Q 2906 2381 2643 2742 
Q 2381 3103 1925 3103 
Q 1469 3103 1208 2742 
Q 947 2381 947 1747 
z
" transform="scale(0.015625)"/>
       <path id="DejaVuSans-29" d="M 513 4856 
L 1013 4856 
Q 1481 4119 1714 3412 
Q 1947 2706 1947 2009 
Q 1947 1309 1714 600 
Q 1481 -109 1013 -844 
L 513 -844 
Q 928 -128 1133 580 
Q 1338 1288 1338 2009 
Q 1338 2731 1133 3434 
Q 928 4138 513 4856 
z
" transform="scale(0.015625)"/>
      </defs>
      <use xlink:href="#DejaVuSans-52"/>
      <use xlink:href="#DejaVuSans-65" x="64.982422"/>
      <use xlink:href="#DejaVuSans-73" x="126.505859"/>
      <use xlink:href="#DejaVuSans-70" x="178.605469"/>
      <use xlink:href="#DejaVuSans-6f" x="242.082031"/>
      <use xlink:href="#DejaVuSans-6e" x="303.263672"/>
      <use xlink:href="#DejaVuSans-73" x="366.642578"/>
      <use xlink:href="#DejaVuSans-65" x="418.742188"/>
      <use xlink:href="#DejaVuSans-20" x="480.265625"/>
      <use xlink:href="#DejaVuSans-56" x="512.052734"/>
      <use xlink:href="#DejaVuSans-61" x="572.710938"/>
      <use xlink:href="#DejaVuSans-72" x="633.990234"/>
      <use xlink:href="#DejaVuSans-69" x="675.103516"/>
      <use xlink:href="#DejaVuSans-61" x="702.886719"/>
      <use xlink:href="#DejaVuSans-6e" x="764.166016"/>
      <use xlink:href="#DejaVuSans-63" x="827.544922"/>
      <use xlink:href="#DejaVuSans-65" x="882.525391"/>
      <use xlink:href="#DejaVuSans-20" x="944.048828"/>
      <use xlink:href="#DejaVuSans-28" x="975.835938"/>
      <use xlink:href="#DejaVuSans-4e" x="1014.849609"/>
      <use xlink:href="#DejaVuSans-6f" x="1089.654297"/>
      <use xlink:href="#DejaVuSans-72" x="1150.835938"/>
      <use xlink:href="#DejaVuSans-6d" x="1190.199219"/>
      <use xlink:href="#DejaVuSans-61" x="1287.611328"/>
      <use xlink:href="#DejaVuSans-6c" x="1348.890625"/>
      <use xlink:href="#DejaVuSans-69" x="1376.673828"/>
      <use xlink:href="#DejaVuSans-7a" x="1404.457031"/>
      <use xlink:href="#DejaVuSans-65" x="1456.947266"/>
      <use xlink:href="#DejaVuSans-64" x="1518.470703"/>
      <use xlink:href="#DejaVuSans-29" x="1581.947266"/>
     </g>
    </g>
   </g>
   <g id="line2d_16">
    <path d="M 43.903125 215.50858 
L 45.969764 215.452538 
L 48.036403 215.284483 
L 52.169681 214.613286 
L 56.302958 213.498258 
L 60.436236 211.944832 
L 64.569514 209.960575 
L 68.702792 207.555155 
L 72.836069 204.74029 
L 76.969347 201.529695 
L 81.102625 197.939011 
L 85.235903 193.985732 
L 89.369181 189.689117 
L 93.502458 185.070099 
L 97.635736 180.151182 
L 101.769014 174.95633 
L 107.968931 166.702375 
L 114.168847 157.975229 
L 120.368764 148.870509 
L 128.635319 136.316418 
L 155.501625 95.084966 
L 161.701542 86.095203 
L 167.901458 77.515398 
L 174.101375 69.439554 
L 178.234653 64.379587 
L 182.367931 59.607712 
L 186.501208 55.147179 
L 190.634486 51.019718 
L 194.767764 47.245437 
L 198.901042 43.842724 
L 203.034319 40.828158 
L 207.167597 38.216425 
L 211.300875 36.020248 
L 215.434153 34.250329 
L 219.567431 32.915288 
L 223.700708 32.021631 
L 227.833986 31.573712 
L 229.900625 31.51767 
L 231.967264 31.573712 
L 234.033903 31.741767 
L 238.167181 32.412964 
L 242.300458 33.527992 
L 246.433736 35.081418 
L 250.567014 37.065675 
L 254.700292 39.471095 
L 258.833569 42.28596 
L 262.966847 45.496555 
L 267.100125 49.087239 
L 271.233403 53.040518 
L 275.366681 57.337133 
L 279.499958 61.956151 
L 283.633236 66.875068 
L 287.766514 72.06992 
L 293.966431 80.323875 
L 300.166347 89.051021 
L 306.366264 98.155741 
L 314.632819 110.709832 
L 341.499125 151.941284 
L 347.699042 160.931047 
L 353.898958 169.510852 
L 360.098875 177.586696 
L 364.232153 182.646663 
L 368.365431 187.418538 
L 372.498708 191.879071 
L 376.631986 196.006532 
L 380.765264 199.780813 
L 384.898542 203.183526 
L 389.031819 206.198092 
L 393.165097 208.809825 
L 397.298375 211.006002 
L 401.431653 212.775921 
L 405.564931 214.110962 
L 409.698208 215.004619 
L 413.831486 215.452538 
L 415.898125 215.50858 
L 415.898125 215.50858 
" clip-path="url(#p7aa13c8ffb)" style="fill: none; stroke: #008000; stroke-width: 2; stroke-linecap: square"/>
   </g>
   <g id="line2d_17">
    <path d="M 43.903125 149.271852 
L 48.036403 149.128431 
L 52.169681 148.698864 
L 56.302958 147.985247 
L 60.436236 146.991054 
L 64.569514 145.721129 
L 68.702792 144.18166 
L 72.836069 142.380147 
L 76.969347 140.325366 
L 81.102625 138.027328 
L 85.235903 135.49723 
L 89.369181 132.747396 
L 93.502458 129.791225 
L 99.702375 125.001847 
L 105.902292 119.833307 
L 112.102208 114.342232 
L 118.302125 108.588783 
L 126.568681 100.618661 
L 157.568264 70.25761 
L 163.768181 64.584744 
L 169.968097 59.194657 
L 176.168014 54.146405 
L 182.367931 49.495297 
L 186.501208 46.640556 
L 190.634486 43.998981 
L 194.767764 41.583441 
L 198.901042 39.405705 
L 203.034319 37.476383 
L 207.167597 35.804873 
L 211.300875 34.39932 
L 215.434153 33.266572 
L 219.567431 32.412146 
L 223.700708 31.840205 
L 227.833986 31.553537 
L 231.967264 31.553537 
L 236.100542 31.840205 
L 240.233819 32.412146 
L 244.367097 33.266572 
L 248.500375 34.39932 
L 252.633653 35.804873 
L 256.766931 37.476383 
L 260.900208 39.405705 
L 265.033486 41.583441 
L 269.166764 43.998981 
L 273.300042 46.640556 
L 277.433319 49.495297 
L 281.566597 52.549297 
L 287.766514 57.47111 
L 293.966431 62.753641 
L 300.166347 68.339015 
L 308.432903 76.151104 
L 318.766097 86.287703 
L 337.365847 104.638419 
L 345.632403 112.450508 
L 351.832319 118.035881 
L 358.032236 123.318413 
L 364.232153 128.240226 
L 368.365431 131.294225 
L 372.498708 134.148967 
L 376.631986 136.790542 
L 380.765264 139.206082 
L 384.898542 141.383818 
L 389.031819 143.31314 
L 393.165097 144.984649 
L 397.298375 146.390202 
L 401.431653 147.522951 
L 405.564931 148.377377 
L 409.698208 148.949317 
L 413.831486 149.235986 
L 415.898125 149.271852 
L 415.898125 149.271852 
" clip-path="url(#p7aa13c8ffb)" style="fill: none; stroke: #808080; stroke-width: 2; stroke-linecap: square"/>
   </g>
   <g id="line2d_18">
    <path d="M 229.900625 224.708125 
L 229.900625 22.318125 
" clip-path="url(#p7aa13c8ffb)" style="fill: none; stroke-dasharray: 2.96,1.28; stroke-dashoffset: 0; stroke: #808080; stroke-width: 0.8"/>
   </g>
   <g id="patch_3">
    <path d="M 43.903125 224.708125 
L 43.903125 22.318125 
" style="fill: none; stroke: #000000; stroke-width: 0.8; stroke-linejoin: miter; stroke-linecap: square"/>
   </g>
   <g id="patch_4">
    <path d="M 415.898125 224.708125 
L 415.898125 22.318125 
" style="fill: none; stroke: #000000; stroke-width: 0.8; stroke-linejoin: miter; stroke-linecap: square"/>
   </g>
   <g id="patch_5">
    <path d="M 43.903125 224.708125 
L 415.898125 224.708125 
" style="fill: none; stroke: #000000; stroke-width: 0.8; stroke-linejoin: miter; stroke-linecap: square"/>
   </g>
   <g id="patch_6">
    <path d="M 43.903125 22.318125 
L 415.898125 22.318125 
" style="fill: none; stroke: #000000; stroke-width: 0.8; stroke-linejoin: miter; stroke-linecap: square"/>
   </g>
   <g id="text_8">
    <!-- Signal and Noise vs. decoding-axis angle -->
    <g transform="translate(107.027187 16.318125) scale(0.12 -0.12)">
     <defs>
      <path id="DejaVuSans-53" d="M 3425 4513 
L 3425 3897 
Q 3066 4069 2747 4153 
Q 2428 4238 2131 4238 
Q 1616 4238 1336 4038 
Q 1056 3838 1056 3469 
Q 1056 3159 1242 3001 
Q 1428 2844 1947 2747 
L 2328 2669 
Q 3034 2534 3370 2195 
Q 3706 1856 3706 1288 
Q 3706 609 3251 259 
Q 2797 -91 1919 -91 
Q 1588 -91 1214 -16 
Q 841 59 441 206 
L 441 856 
Q 825 641 1194 531 
Q 1563 422 1919 422 
Q 2459 422 2753 634 
Q 3047 847 3047 1241 
Q 3047 1584 2836 1778 
Q 2625 1972 2144 2069 
L 1759 2144 
Q 1053 2284 737 2584 
Q 422 2884 422 3419 
Q 422 4038 858 4394 
Q 1294 4750 2059 4750 
Q 2388 4750 2728 4690 
Q 3069 4631 3425 4513 
z
" transform="scale(0.015625)"/>
      <path id="DejaVuSans-67" d="M 2906 1791 
Q 2906 2416 2648 2759 
Q 2391 3103 1925 3103 
Q 1463 3103 1205 2759 
Q 947 2416 947 1791 
Q 947 1169 1205 825 
Q 1463 481 1925 481 
Q 2391 481 2648 825 
Q 2906 1169 2906 1791 
z
M 3481 434 
Q 3481 -459 3084 -895 
Q 2688 -1331 1869 -1331 
Q 1566 -1331 1297 -1286 
Q 1028 -1241 775 -1147 
L 775 -588 
Q 1028 -725 1275 -790 
Q 1522 -856 1778 -856 
Q 2344 -856 2625 -561 
Q 2906 -266 2906 331 
L 2906 616 
Q 2728 306 2450 153 
Q 2172 0 1784 0 
Q 1141 0 747 490 
Q 353 981 353 1791 
Q 353 2603 747 3093 
Q 1141 3584 1784 3584 
Q 2172 3584 2450 3431 
Q 2728 3278 2906 2969 
L 2906 3500 
L 3481 3500 
L 3481 434 
z
" transform="scale(0.015625)"/>
      <path id="DejaVuSans-76" d="M 191 3500 
L 800 3500 
L 1894 563 
L 2988 3500 
L 3597 3500 
L 2284 0 
L 1503 0 
L 191 3500 
z
" transform="scale(0.015625)"/>
      <path id="DejaVuSans-2d" d="M 313 2009 
L 1997 2009 
L 1997 1497 
L 313 1497 
L 313 2009 
z
" transform="scale(0.015625)"/>
      <path id="DejaVuSans-78" d="M 3513 3500 
L 2247 1797 
L 3578 0 
L 2900 0 
L 1881 1375 
L 863 0 
L 184 0 
L 1544 1831 
L 300 3500 
L 978 3500 
L 1906 2253 
L 2834 3500 
L 3513 3500 
z
" transform="scale(0.015625)"/>
     </defs>
     <use xlink:href="#DejaVuSans-53"/>
     <use xlink:href="#DejaVuSans-69" x="63.476562"/>
     <use xlink:href="#DejaVuSans-67" x="91.259766"/>
     <use xlink:href="#DejaVuSans-6e" x="154.736328"/>
     <use xlink:href="#DejaVuSans-61" x="218.115234"/>
     <use xlink:href="#DejaVuSans-6c" x="279.394531"/>
     <use xlink:href="#DejaVuSans-20" x="307.177734"/>
     <use xlink:href="#DejaVuSans-61" x="338.964844"/>
     <use xlink:href="#DejaVuSans-6e" x="400.244141"/>
     <use xlink:href="#DejaVuSans-64" x="463.623047"/>
     <use xlink:href="#DejaVuSans-20" x="527.099609"/>
     <use xlink:href="#DejaVuSans-4e" x="558.886719"/>
     <use xlink:href="#DejaVuSans-6f" x="633.691406"/>
     <use xlink:href="#DejaVuSans-69" x="694.873047"/>
     <use xlink:href="#DejaVuSans-73" x="722.65625"/>
     <use xlink:href="#DejaVuSans-65" x="774.755859"/>
     <use xlink:href="#DejaVuSans-20" x="836.279297"/>
     <use xlink:href="#DejaVuSans-76" x="868.066406"/>
     <use xlink:href="#DejaVuSans-73" x="927.246094"/>
     <use xlink:href="#DejaVuSans-2e" x="979.345703"/>
     <use xlink:href="#DejaVuSans-20" x="1011.132812"/>
     <use xlink:href="#DejaVuSans-64" x="1042.919922"/>
     <use xlink:href="#DejaVuSans-65" x="1106.396484"/>
     <use xlink:href="#DejaVuSans-63" x="1167.919922"/>
     <use xlink:href="#DejaVuSans-6f" x="1222.900391"/>
     <use xlink:href="#DejaVuSans-64" x="1284.082031"/>
     <use xlink:href="#DejaVuSans-69" x="1347.558594"/>
     <use xlink:href="#DejaVuSans-6e" x="1375.341797"/>
     <use xlink:href="#DejaVuSans-67" x="1438.720703"/>
     <use xlink:href="#DejaVuSans-2d" x="1502.197266"/>
     <use xlink:href="#DejaVuSans-61" x="1538.28125"/>
     <use xlink:href="#DejaVuSans-78" x="1599.560547"/>
     <use xlink:href="#DejaVuSans-69" x="1658.740234"/>
     <use xlink:href="#DejaVuSans-73" x="1686.523438"/>
     <use xlink:href="#DejaVuSans-20" x="1738.623047"/>
     <use xlink:href="#DejaVuSans-61" x="1770.410156"/>
     <use xlink:href="#DejaVuSans-6e" x="1831.689453"/>
     <use xlink:href="#DejaVuSans-67" x="1895.068359"/>
     <use xlink:href="#DejaVuSans-6c" x="1958.544922"/>
     <use xlink:href="#DejaVuSans-65" x="1986.328125"/>
    </g>
   </g>
   <g id="legend_1">
    <g id="line2d_19">
     <path d="M 316.023438 34.106719 
L 325.023438 34.106719 
L 334.023438 34.106719 
" style="fill: none; stroke: #008000; stroke-width: 2; stroke-linecap: square"/>
    </g>
    <g id="text_9">
     <!-- Signal power -->
     <g transform="translate(341.223438 37.256719) scale(0.09 -0.09)">
      <defs>
       <path id="DejaVuSans-77" d="M 269 3500 
L 844 3500 
L 1563 769 
L 2278 3500 
L 2956 3500 
L 3675 769 
L 4391 3500 
L 4966 3500 
L 4050 0 
L 3372 0 
L 2619 2869 
L 1863 0 
L 1184 0 
L 269 3500 
z
" transform="scale(0.015625)"/>
      </defs>
      <use xlink:href="#DejaVuSans-53"/>
      <use xlink:href="#DejaVuSans-69" x="63.476562"/>
      <use xlink:href="#DejaVuSans-67" x="91.259766"/>
      <use xlink:href="#DejaVuSans-6e" x="154.736328"/>
      <use xlink:href="#DejaVuSans-61" x="218.115234"/>
      <use xlink:href="#DejaVuSans-6c" x="279.394531"/>
      <use xlink:href="#DejaVuSans-20" x="307.177734"/>
      <use xlink:href="#DejaVuSans-70" x="338.964844"/>
      <use xlink:href="#DejaVuSans-6f" x="402.441406"/>
      <use xlink:href="#DejaVuSans-77" x="463.623047"/>
      <use xlink:href="#DejaVuSans-65" x="545.410156"/>
      <use xlink:href="#DejaVuSans-72" x="606.933594"/>
     </g>
    </g>
    <g id="line2d_20">
     <path d="M 316.023438 47.317031 
L 325.023438 47.317031 
L 334.023438 47.317031 
" style="fill: none; stroke: #808080; stroke-width: 2; stroke-linecap: square"/>
    </g>
    <g id="text_10">
     <!-- Noise variance -->
     <g transform="translate(341.223438 50.467031) scale(0.09 -0.09)">
      <use xlink:href="#DejaVuSans-4e"/>
      <use xlink:href="#DejaVuSans-6f" x="74.804688"/>
      <use xlink:href="#DejaVuSans-69" x="135.986328"/>
      <use xlink:href="#DejaVuSans-73" x="163.769531"/>
      <use xlink:href="#DejaVuSans-65" x="215.869141"/>
      <use xlink:href="#DejaVuSans-20" x="277.392578"/>
      <use xlink:href="#DejaVuSans-76" x="309.179688"/>
      <use xlink:href="#DejaVuSans-61" x="368.359375"/>
      <use xlink:href="#DejaVuSans-72" x="429.638672"/>
      <use xlink:href="#DejaVuSans-69" x="470.751953"/>
      <use xlink:href="#DejaVuSans-61" x="498.535156"/>
      <use xlink:href="#DejaVuSans-6e" x="559.814453"/>
      <use xlink:href="#DejaVuSans-63" x="623.193359"/>
      <use xlink:href="#DejaVuSans-65" x="678.173828"/>
     </g>
    </g>
   </g>
  </g>
  <g id="axes_2">
   <g id="patch_7">
    <path d="M 43.903125 456.758125 
L 415.898125 456.758125 
L 415.898125 254.368125 
L 43.903125 254.368125 
z
" style="fill: #ffffff"/>
   </g>
   <g id="matplotlib.axis_3">
    <g id="xtick_10">
     <g id="line2d_21">
      <g>
       <use xlink:href="#ma13938bfa1" x="64.569514" y="456.758125" style="stroke: #000000; stroke-width: 0.8"/>
      </g>
     </g>
     <g id="text_11">
      <!-- −80 -->
      <g transform="translate(54.01717 471.356562) scale(0.1 -0.1)">
       <defs>
        <path id="DejaVuSans-2212" d="M 678 2272 
L 4684 2272 
L 4684 1741 
L 678 1741 
L 678 2272 
z
" transform="scale(0.015625)"/>
        <path id="DejaVuSans-38" d="M 2034 2216 
Q 1584 2216 1326 1975 
Q 1069 1734 1069 1313 
Q 1069 891 1326 650 
Q 1584 409 2034 409 
Q 2484 409 2743 651 
Q 3003 894 3003 1313 
Q 3003 1734 2745 1975 
Q 2488 2216 2034 2216 
z
M 1403 2484 
Q 997 2584 770 2862 
Q 544 3141 544 3541 
Q 544 4100 942 4425 
Q 1341 4750 2034 4750 
Q 2731 4750 3128 4425 
Q 3525 4100 3525 3541 
Q 3525 3141 3298 2862 
Q 3072 2584 2669 2484 
Q 3125 2378 3379 2068 
Q 3634 1759 3634 1313 
Q 3634 634 3220 271 
Q 2806 -91 2034 -91 
Q 1263 -91 848 271 
Q 434 634 434 1313 
Q 434 1759 690 2068 
Q 947 2378 1403 2484 
z
M 1172 3481 
Q 1172 3119 1398 2916 
Q 1625 2713 2034 2713 
Q 2441 2713 2670 2916 
Q 2900 3119 2900 3481 
Q 2900 3844 2670 4047 
Q 2441 4250 2034 4250 
Q 1625 4250 1398 4047 
Q 1172 3844 1172 3481 
z
" transform="scale(0.015625)"/>
       </defs>
       <use xlink:href="#DejaVuSans-2212"/>
       <use xlink:href="#DejaVuSans-38" x="83.789062"/>
       <use xlink:href="#DejaVuSans-30" x="147.412109"/>
      </g>
     </g>
    </g>
    <g id="xtick_11">
     <g id="line2d_22">
      <g>
       <use xlink:href="#ma13938bfa1" x="105.902292" y="456.758125" style="stroke: #000000; stroke-width: 0.8"/>
      </g>
     </g>
     <g id="text_12">
      <!-- −60 -->
      <g transform="translate(95.349948 471.356562) scale(0.1 -0.1)">
       <defs>
        <path id="DejaVuSans-36" d="M 2113 2584 
Q 1688 2584 1439 2293 
Q 1191 2003 1191 1497 
Q 1191 994 1439 701 
Q 1688 409 2113 409 
Q 2538 409 2786 701 
Q 3034 994 3034 1497 
Q 3034 2003 2786 2293 
Q 2538 2584 2113 2584 
z
M 3366 4563 
L 3366 3988 
Q 3128 4100 2886 4159 
Q 2644 4219 2406 4219 
Q 1781 4219 1451 3797 
Q 1122 3375 1075 2522 
Q 1259 2794 1537 2939 
Q 1816 3084 2150 3084 
Q 2853 3084 3261 2657 
Q 3669 2231 3669 1497 
Q 3669 778 3244 343 
Q 2819 -91 2113 -91 
Q 1303 -91 875 529 
Q 447 1150 447 2328 
Q 447 3434 972 4092 
Q 1497 4750 2381 4750 
Q 2619 4750 2861 4703 
Q 3103 4656 3366 4563 
z
" transform="scale(0.015625)"/>
       </defs>
       <use xlink:href="#DejaVuSans-2212"/>
       <use xlink:href="#DejaVuSans-36" x="83.789062"/>
       <use xlink:href="#DejaVuSans-30" x="147.412109"/>
      </g>
     </g>
    </g>
    <g id="xtick_12">
     <g id="line2d_23">
      <g>
       <use xlink:href="#ma13938bfa1" x="147.235069" y="456.758125" style="stroke: #000000; stroke-width: 0.8"/>
      </g>
     </g>
     <g id="text_13">
      <!-- −40 -->
      <g transform="translate(136.682726 471.356562) scale(0.1 -0.1)">
       <defs>
        <path id="DejaVuSans-34" d="M 2419 4116 
L 825 1625 
L 2419 1625 
L 2419 4116 
z
M 2253 4666 
L 3047 4666 
L 3047 1625 
L 3713 1625 
L 3713 1100 
L 3047 1100 
L 3047 0 
L 2419 0 
L 2419 1100 
L 313 1100 
L 313 1709 
L 2253 4666 
z
" transform="scale(0.015625)"/>
       </defs>
       <use xlink:href="#DejaVuSans-2212"/>
       <use xlink:href="#DejaVuSans-34" x="83.789062"/>
       <use xlink:href="#DejaVuSans-30" x="147.412109"/>
      </g>
     </g>
    </g>
    <g id="xtick_13">
     <g id="line2d_24">
      <g>
       <use xlink:href="#ma13938bfa1" x="188.567847" y="456.758125" style="stroke: #000000; stroke-width: 0.8"/>
      </g>
     </g>
     <g id="text_14">
      <!-- −20 -->
      <g transform="translate(178.015503 471.356562) scale(0.1 -0.1)">
       <use xlink:href="#DejaVuSans-2212"/>
       <use xlink:href="#DejaVuSans-32" x="83.789062"/>
       <use xlink:href="#DejaVuSans-30" x="147.412109"/>
      </g>
     </g>
    </g>
    <g id="xtick_14">
     <g id="line2d_25">
      <g>
       <use xlink:href="#ma13938bfa1" x="229.900625" y="456.758125" style="stroke: #000000; stroke-width: 0.8"/>
      </g>
     </g>
     <g id="text_15">
      <!-- 0 -->
      <g transform="translate(226.719375 471.356562) scale(0.1 -0.1)">
       <use xlink:href="#DejaVuSans-30"/>
      </g>
     </g>
    </g>
    <g id="xtick_15">
     <g id="line2d_26">
      <g>
       <use xlink:href="#ma13938bfa1" x="271.233403" y="456.758125" style="stroke: #000000; stroke-width: 0.8"/>
      </g>
     </g>
     <g id="text_16">
      <!-- 20 -->
      <g transform="translate(264.870903 471.356562) scale(0.1 -0.1)">
       <use xlink:href="#DejaVuSans-32"/>
       <use xlink:href="#DejaVuSans-30" x="63.623047"/>
      </g>
     </g>
    </g>
    <g id="xtick_16">
     <g id="line2d_27">
      <g>
       <use xlink:href="#ma13938bfa1" x="312.566181" y="456.758125" style="stroke: #000000; stroke-width: 0.8"/>
      </g>
     </g>
     <g id="text_17">
      <!-- 40 -->
      <g transform="translate(306.203681 471.356562) scale(0.1 -0.1)">
       <use xlink:href="#DejaVuSans-34"/>
       <use xlink:href="#DejaVuSans-30" x="63.623047"/>
      </g>
     </g>
    </g>
    <g id="xtick_17">
     <g id="line2d_28">
      <g>
       <use xlink:href="#ma13938bfa1" x="353.898958" y="456.758125" style="stroke: #000000; stroke-width: 0.8"/>
      </g>
     </g>
     <g id="text_18">
      <!-- 60 -->
      <g transform="translate(347.536458 471.356562) scale(0.1 -0.1)">
       <use xlink:href="#DejaVuSans-36"/>
       <use xlink:href="#DejaVuSans-30" x="63.623047"/>
      </g>
     </g>
    </g>
    <g id="xtick_18">
     <g id="line2d_29">
      <g>
       <use xlink:href="#ma13938bfa1" x="395.231736" y="456.758125" style="stroke: #000000; stroke-width: 0.8"/>
      </g>
     </g>
     <g id="text_19">
      <!-- 80 -->
      <g transform="translate(388.869236 471.356562) scale(0.1 -0.1)">
       <use xlink:href="#DejaVuSans-38"/>
       <use xlink:href="#DejaVuSans-30" x="63.623047"/>
      </g>
     </g>
    </g>
    <g id="text_20">
     <!-- angle $\theta$ (degrees) -->
     <g transform="translate(185.650625 485.13625) scale(0.1 -0.1)">
      <defs>
       <path id="DejaVuSans-Oblique-3b8" d="M 2913 2219 
L 925 2219 
Q 791 1284 928 888 
Q 1100 400 1566 400 
Q 2034 400 2391 891 
Q 2703 1322 2913 2219 
z
M 3009 2750 
Q 3094 3638 2984 3950 
Q 2813 4444 2353 4444 
Q 1875 4444 1525 3956 
Q 1250 3563 1034 2750 
L 3009 2750 
z
M 2444 4913 
Q 3194 4913 3494 4250 
Q 3794 3591 3566 2422 
Q 3341 1256 2781 594 
Q 2225 -72 1475 -72 
Q 722 -72 425 594 
Q 128 1256 353 2422 
Q 581 3591 1134 4250 
Q 1691 4913 2444 4913 
z
" transform="scale(0.015625)"/>
      </defs>
      <use xlink:href="#DejaVuSans-61" transform="translate(0 0.234375)"/>
      <use xlink:href="#DejaVuSans-6e" transform="translate(61.279297 0.234375)"/>
      <use xlink:href="#DejaVuSans-67" transform="translate(124.658203 0.234375)"/>
      <use xlink:href="#DejaVuSans-6c" transform="translate(188.134766 0.234375)"/>
      <use xlink:href="#DejaVuSans-65" transform="translate(215.917969 0.234375)"/>
      <use xlink:href="#DejaVuSans-20" transform="translate(277.441406 0.234375)"/>
      <use xlink:href="#DejaVuSans-Oblique-3b8" transform="translate(309.228516 0.234375)"/>
      <use xlink:href="#DejaVuSans-20" transform="translate(370.410156 0.234375)"/>
      <use xlink:href="#DejaVuSans-28" transform="translate(402.197266 0.234375)"/>
      <use xlink:href="#DejaVuSans-64" transform="translate(441.210938 0.234375)"/>
      <use xlink:href="#DejaVuSans-65" transform="translate(504.6875 0.234375)"/>
      <use xlink:href="#DejaVuSans-67" transform="translate(566.210938 0.234375)"/>
      <use xlink:href="#DejaVuSans-72" transform="translate(629.6875 0.234375)"/>
      <use xlink:href="#DejaVuSans-65" transform="translate(670.800781 0.234375)"/>
      <use xlink:href="#DejaVuSans-65" transform="translate(732.324219 0.234375)"/>
      <use xlink:href="#DejaVuSans-73" transform="translate(793.847656 0.234375)"/>
      <use xlink:href="#DejaVuSans-29" transform="translate(845.947266 0.234375)"/>
     </g>
    </g>
   </g>
   <g id="matplotlib.axis_4">
    <g id="ytick_7">
     <g id="line2d_30">
      <g>
       <use xlink:href="#m6c5958fabc" x="43.903125" y="447.55858" style="stroke: #000000; stroke-width: 0.8"/>
      </g>
     </g>
     <g id="text_21">
      <!-- 0.0 -->
      <g transform="translate(21 451.357798) scale(0.1 -0.1)">
       <use xlink:href="#DejaVuSans-30"/>
       <use xlink:href="#DejaVuSans-2e" x="63.623047"/>
       <use xlink:href="#DejaVuSans-30" x="95.410156"/>
      </g>
     </g>
    </g>
    <g id="ytick_8">
     <g id="line2d_31">
      <g>
       <use xlink:href="#m6c5958fabc" x="43.903125" y="410.760398" style="stroke: #000000; stroke-width: 0.8"/>
      </g>
     </g>
     <g id="text_22">
      <!-- 0.2 -->
      <g transform="translate(21 414.559616) scale(0.1 -0.1)">
       <use xlink:href="#DejaVuSans-30"/>
       <use xlink:href="#DejaVuSans-2e" x="63.623047"/>
       <use xlink:href="#DejaVuSans-32" x="95.410156"/>
      </g>
     </g>
    </g>
    <g id="ytick_9">
     <g id="line2d_32">
      <g>
       <use xlink:href="#m6c5958fabc" x="43.903125" y="373.962216" style="stroke: #000000; stroke-width: 0.8"/>
      </g>
     </g>
     <g id="text_23">
      <!-- 0.4 -->
      <g transform="translate(21 377.761435) scale(0.1 -0.1)">
       <use xlink:href="#DejaVuSans-30"/>
       <use xlink:href="#DejaVuSans-2e" x="63.623047"/>
       <use xlink:href="#DejaVuSans-34" x="95.410156"/>
      </g>
     </g>
    </g>
    <g id="ytick_10">
     <g id="line2d_33">
      <g>
       <use xlink:href="#m6c5958fabc" x="43.903125" y="337.164034" style="stroke: #000000; stroke-width: 0.8"/>
      </g>
     </g>
     <g id="text_24">
      <!-- 0.6 -->
      <g transform="translate(21 340.963253) scale(0.1 -0.1)">
       <use xlink:href="#DejaVuSans-30"/>
       <use xlink:href="#DejaVuSans-2e" x="63.623047"/>
       <use xlink:href="#DejaVuSans-36" x="95.410156"/>
      </g>
     </g>
    </g>
    <g id="ytick_11">
     <g id="line2d_34">
      <g>
       <use xlink:href="#m6c5958fabc" x="43.903125" y="300.365852" style="stroke: #000000; stroke-width: 0.8"/>
      </g>
     </g>
     <g id="text_25">
      <!-- 0.8 -->
      <g transform="translate(21 304.165071) scale(0.1 -0.1)">
       <use xlink:href="#DejaVuSans-30"/>
       <use xlink:href="#DejaVuSans-2e" x="63.623047"/>
       <use xlink:href="#DejaVuSans-38" x="95.410156"/>
      </g>
     </g>
    </g>
    <g id="ytick_12">
     <g id="line2d_35">
      <g>
       <use xlink:href="#m6c5958fabc" x="43.903125" y="263.56767" style="stroke: #000000; stroke-width: 0.8"/>
      </g>
     </g>
     <g id="text_26">
      <!-- 1.0 -->
      <g transform="translate(21 267.366889) scale(0.1 -0.1)">
       <use xlink:href="#DejaVuSans-31"/>
       <use xlink:href="#DejaVuSans-2e" x="63.623047"/>
       <use xlink:href="#DejaVuSans-30" x="95.410156"/>
      </g>
     </g>
    </g>
    <g id="text_27">
     <!-- Fisher ratio $J(\theta)$ -->
     <g transform="translate(14.9 393.913125) rotate(-90) scale(0.1 -0.1)">
      <defs>
       <path id="DejaVuSans-46" d="M 628 4666 
L 3309 4666 
L 3309 4134 
L 1259 4134 
L 1259 2759 
L 3109 2759 
L 3109 2228 
L 1259 2228 
L 1259 0 
L 628 0 
L 628 4666 
z
" transform="scale(0.015625)"/>
       <path id="DejaVuSans-68" d="M 3513 2113 
L 3513 0 
L 2938 0 
L 2938 2094 
Q 2938 2591 2744 2837 
Q 2550 3084 2163 3084 
Q 1697 3084 1428 2787 
Q 1159 2491 1159 1978 
L 1159 0 
L 581 0 
L 581 4863 
L 1159 4863 
L 1159 2956 
Q 1366 3272 1645 3428 
Q 1925 3584 2291 3584 
Q 2894 3584 3203 3211 
Q 3513 2838 3513 2113 
z
" transform="scale(0.015625)"/>
       <path id="DejaVuSans-74" d="M 1172 4494 
L 1172 3500 
L 2356 3500 
L 2356 3053 
L 1172 3053 
L 1172 1153 
Q 1172 725 1289 603 
Q 1406 481 1766 481 
L 2356 481 
L 2356 0 
L 1766 0 
Q 1100 0 847 248 
Q 594 497 594 1153 
L 594 3053 
L 172 3053 
L 172 3500 
L 594 3500 
L 594 4494 
L 1172 4494 
z
" transform="scale(0.015625)"/>
       <path id="DejaVuSans-Oblique-4a" d="M 1069 4666 
L 1703 4666 
L 856 325 
Q 691 -522 298 -901 
Q -94 -1281 -800 -1281 
L -1050 -1281 
L -947 -750 
L -750 -750 
Q -328 -750 -109 -509 
Q 109 -269 225 325 
L 1069 4666 
z
" transform="scale(0.015625)"/>
      </defs>
      <use xlink:href="#DejaVuSans-46" transform="translate(0 0.234375)"/>
      <use xlink:href="#DejaVuSans-69" transform="translate(57.519531 0.234375)"/>
      <use xlink:href="#DejaVuSans-73" transform="translate(85.302734 0.234375)"/>
      <use xlink:href="#DejaVuSans-68" transform="translate(137.402344 0.234375)"/>
      <use xlink:href="#DejaVuSans-65" transform="translate(200.78125 0.234375)"/>
      <use xlink:href="#DejaVuSans-72" transform="translate(262.304688 0.234375)"/>
      <use xlink:href="#DejaVuSans-20" transform="translate(303.417969 0.234375)"/>
      <use xlink:href="#DejaVuSans-72" transform="translate(335.205078 0.234375)"/>
      <use xlink:href="#DejaVuSans-61" transform="translate(376.318359 0.234375)"/>
      <use xlink:href="#DejaVuSans-74" transform="translate(437.597656 0.234375)"/>
      <use xlink:href="#DejaVuSans-69" transform="translate(476.806641 0.234375)"/>
      <use xlink:href="#DejaVuSans-6f" transform="translate(504.589844 0.234375)"/>
      <use xlink:href="#DejaVuSans-20" transform="translate(565.771484 0.234375)"/>
      <use xlink:href="#DejaVuSans-Oblique-4a" transform="translate(597.558594 0.234375)"/>
      <use xlink:href="#DejaVuSans-28" transform="translate(627.050781 0.234375)"/>
      <use xlink:href="#DejaVuSans-Oblique-3b8" transform="translate(666.064453 0.234375)"/>
      <use xlink:href="#DejaVuSans-29" transform="translate(727.246094 0.234375)"/>
     </g>
    </g>
   </g>
   <g id="line2d_36">
    <path d="M 43.903125 447.55858 
L 45.969764 447.402994 
L 48.036403 446.937435 
L 50.103042 446.165472 
L 52.169681 445.092982 
L 54.236319 443.728037 
L 56.302958 442.080757 
L 58.369597 440.16313 
L 60.436236 437.988806 
L 62.502875 435.572861 
L 64.569514 432.931559 
L 66.636153 430.082102 
L 70.769431 423.830694 
L 74.902708 416.965593 
L 79.035986 409.633661 
L 85.235903 398.065497 
L 101.769014 366.62538 
L 107.968931 355.431265 
L 114.168847 344.843544 
L 118.302125 338.170001 
L 122.435403 331.8243 
L 126.568681 325.815074 
L 130.701958 320.145081 
L 134.835236 314.812482 
L 138.968514 309.811936 
L 143.101792 305.13553 
L 147.235069 300.773533 
L 151.368347 296.715028 
L 155.501625 292.948405 
L 159.634903 289.461753 
L 163.768181 286.243167 
L 167.901458 283.280982 
L 172.034736 280.563945 
L 176.168014 278.081346 
L 180.301292 275.823107 
L 184.434569 273.779845 
L 188.567847 271.942915 
L 192.701125 270.304429 
L 196.834403 268.857274 
L 200.967681 267.595109 
L 205.100958 266.51237 
L 209.234236 265.604255 
L 213.367514 264.866723 
L 217.500792 264.296483 
L 221.634069 263.890983 
L 225.767347 263.648408 
L 229.900625 263.56767 
L 234.033903 263.648408 
L 238.167181 263.890983 
L 242.300458 264.296483 
L 246.433736 264.866723 
L 250.567014 265.604255 
L 254.700292 266.51237 
L 258.833569 267.595109 
L 262.966847 268.857274 
L 267.100125 270.304429 
L 271.233403 271.942915 
L 275.366681 273.779845 
L 279.499958 275.823107 
L 283.633236 278.081346 
L 287.766514 280.563945 
L 291.899792 283.280982 
L 296.033069 286.243167 
L 300.166347 289.461753 
L 304.299625 292.948405 
L 308.432903 296.715028 
L 312.566181 300.773533 
L 316.699458 305.13553 
L 320.832736 309.811936 
L 324.966014 314.812482 
L 329.099292 320.145081 
L 333.232569 325.815074 
L 337.365847 331.8243 
L 341.499125 338.170001 
L 345.632403 344.843544 
L 349.765681 351.828972 
L 355.965597 362.834633 
L 362.165514 374.353089 
L 382.831903 413.348979 
L 386.965181 420.465597 
L 391.098458 427.042372 
L 395.231736 432.931559 
L 397.298375 435.572861 
L 399.365014 437.988806 
L 401.431653 440.16313 
L 403.498292 442.080757 
L 405.564931 443.728037 
L 407.631569 445.092982 
L 409.698208 446.165472 
L 411.764847 446.937435 
L 413.831486 447.402994 
L 415.898125 447.55858 
L 415.898125 447.55858 
" clip-path="url(#p556be27ad6)" style="fill: none; stroke: #000000; stroke-width: 2; stroke-linecap: square"/>
   </g>
   <g id="line2d_37">
    <path d="M 229.900625 456.758125 
L 229.900625 254.368125 
" clip-path="url(#p556be27ad6)" style="fill: none; stroke-dasharray: 2.96,1.28; stroke-dashoffset: 0; stroke: #808080; stroke-width: 0.8"/>
   </g>
   <g id="patch_8">
    <path d="M 43.903125 456.758125 
L 43.903125 254.368125 
" style="fill: none; stroke: #000000; stroke-width: 0.8; stroke-linejoin: miter; stroke-linecap: square"/>
   </g>
   <g id="patch_9">
    <path d="M 415.898125 456.758125 
L 415.898125 254.368125 
" style="fill: none; stroke: #000000; stroke-width: 0.8; stroke-linejoin: miter; stroke-linecap: square"/>
   </g>
   <g id="patch_10">
    <path d="M 43.903125 456.758125 
L 415.898125 456.758125 
" style="fill: none; stroke: #000000; stroke-width: 0.8; stroke-linejoin: miter; stroke-linecap: square"/>
   </g>
   <g id="patch_11">
    <path d="M 43.903125 254.368125 
L 415.898125 254.368125 
" style="fill: none; stroke: #000000; stroke-width: 0.8; stroke-linejoin: miter; stroke-linecap: square"/>
   </g>
   <g id="text_28">
    <!-- Discriminability vs. angle -->
    <g transform="translate(154.307187 248.368125) scale(0.12 -0.12)">
     <defs>
      <path id="DejaVuSans-44" d="M 1259 4147 
L 1259 519 
L 2022 519 
Q 2988 519 3436 956 
Q 3884 1394 3884 2338 
Q 3884 3275 3436 3711 
Q 2988 4147 2022 4147 
L 1259 4147 
z
M 628 4666 
L 1925 4666 
Q 3281 4666 3915 4102 
Q 4550 3538 4550 2338 
Q 4550 1131 3912 565 
Q 3275 0 1925 0 
L 628 0 
L 628 4666 
z
" transform="scale(0.015625)"/>
      <path id="DejaVuSans-62" d="M 3116 1747 
Q 3116 2381 2855 2742 
Q 2594 3103 2138 3103 
Q 1681 3103 1420 2742 
Q 1159 2381 1159 1747 
Q 1159 1113 1420 752 
Q 1681 391 2138 391 
Q 2594 391 2855 752 
Q 3116 1113 3116 1747 
z
M 1159 2969 
Q 1341 3281 1617 3432 
Q 1894 3584 2278 3584 
Q 2916 3584 3314 3078 
Q 3713 2572 3713 1747 
Q 3713 922 3314 415 
Q 2916 -91 2278 -91 
Q 1894 -91 1617 61 
Q 1341 213 1159 525 
L 1159 0 
L 581 0 
L 581 4863 
L 1159 4863 
L 1159 2969 
z
" transform="scale(0.015625)"/>
      <path id="DejaVuSans-79" d="M 2059 -325 
Q 1816 -950 1584 -1140 
Q 1353 -1331 966 -1331 
L 506 -1331 
L 506 -850 
L 844 -850 
Q 1081 -850 1212 -737 
Q 1344 -625 1503 -206 
L 1606 56 
L 191 3500 
L 800 3500 
L 1894 763 
L 2988 3500 
L 3597 3500 
L 2059 -325 
z
" transform="scale(0.015625)"/>
     </defs>
     <use xlink:href="#DejaVuSans-44"/>
     <use xlink:href="#DejaVuSans-69" x="77.001953"/>
     <use xlink:href="#DejaVuSans-73" x="104.785156"/>
     <use xlink:href="#DejaVuSans-63" x="156.884766"/>
     <use xlink:href="#DejaVuSans-72" x="211.865234"/>
     <use xlink:href="#DejaVuSans-69" x="252.978516"/>
     <use xlink:href="#DejaVuSans-6d" x="280.761719"/>
     <use xlink:href="#DejaVuSans-69" x="378.173828"/>
     <use xlink:href="#DejaVuSans-6e" x="405.957031"/>
     <use xlink:href="#DejaVuSans-61" x="469.335938"/>
     <use xlink:href="#DejaVuSans-62" x="530.615234"/>
     <use xlink:href="#DejaVuSans-69" x="594.091797"/>
     <use xlink:href="#DejaVuSans-6c" x="621.875"/>
     <use xlink:href="#DejaVuSans-69" x="649.658203"/>
     <use xlink:href="#DejaVuSans-74" x="677.441406"/>
     <use xlink:href="#DejaVuSans-79" x="716.650391"/>
     <use xlink:href="#DejaVuSans-20" x="775.830078"/>
     <use xlink:href="#DejaVuSans-76" x="807.617188"/>
     <use xlink:href="#DejaVuSans-73" x="866.796875"/>
     <use xlink:href="#DejaVuSans-2e" x="918.896484"/>
     <use xlink:href="#DejaVuSans-20" x="950.683594"/>
     <use xlink:href="#DejaVuSans-61" x="982.470703"/>
     <use xlink:href="#DejaVuSans-6e" x="1043.75"/>
     <use xlink:href="#DejaVuSans-67" x="1107.128906"/>
     <use xlink:href="#DejaVuSans-6c" x="1170.605469"/>
     <use xlink:href="#DejaVuSans-65" x="1198.388672"/>
    </g>
   </g>
  </g>
 </g>
 <defs>
  <clipPath id="p7aa13c8ffb">
   <rect x="43.903125" y="22.318125" width="371.995" height="202.39"/>
  </clipPath>
  <clipPath id="p556be27ad6">
   <rect x="43.903125" y="254.368125" width="371.995" height="202.39"/>
  </clipPath>
 </defs>
</svg>
