<?xml version="1.0" encoding="utf-8" standalone="no"?>
<!DOCTYPE svg PUBLIC "-//W3C//DTD SVG 1.1//EN"
  "http://www.w3.org/Graphics/SVG/1.1/DTD/svg11.dtd">
<svg xmlns:xlink="http://www.w3.org/1999/xlink" width="466.978437pt" height="437.716562pt" viewBox="0 0 466.978437 437.716562" xmlns="http://www.w3.org/2000/svg" version="1.1">
 <metadata>
  <rdf:RDF xmlns:dc="http://purl.org/dc/elements/1.1/" xmlns:cc="http://creativecommons.org/ns#" xmlns:rdf="http://www.w3.org/1999/02/22-rdf-syntax-ns#">
   <cc:Work>
    <dc:type rdf:resource="http://purl.org/dc/dcmitype/StillImage"/>
    <dc:date>2025-10-28T15:25:19.598629</dc:date>
    <dc:format>image/svg+xml</dc:format>
    <dc:creator>
     <cc:Agent>
      <dc:title>Matplotlib v3.10.3, https://matplotlib.org/</dc:title>
     </cc:Agent>
    </dc:creator>
   </cc:Work>
  </rdf:RDF>
 </metadata>
 <defs>
  <style type="text/css">*{stroke-linejoin: round; stroke-linecap: butt}</style>
 </defs>
 <g id="figure_1">
  <g id="patch_1">
   <path d="M 0 437.716562 
L 466.978437 437.716562 
L 466.978437 0 
L 0 0 
z
" style="fill: #ffffff"/>
  </g>
  <g id="patch_2">
   <path d="M 57.089219 416.116562 
L 409.889219 416.116562 
L 409.889219 63.316562 
L 57.089219 63.316562 
L 57.089219 416.116562 
z
" style="fill: none"/>
  </g>
  <g id="pane3d_1">
   <g id="patch_3">
    <path d="M 296.450056 313.999689 
L 108.990241 326.432947 
L 107.058937 125.069408 
L 297.288988 119.521453 
" style="fill: none; opacity: 0.5; stroke: #ffffff; stroke-linejoin: miter"/>
   </g>
  </g>
  <g id="pane3d_2">
   <g id="patch_4">
    <path d="M 376.156028 350.441069 
L 296.450056 313.999689 
L 297.288988 119.521453 
L 378.356094 135.798527 
" style="fill: none; opacity: 0.5; stroke: #ffffff; stroke-linejoin: miter"/>
   </g>
  </g>
  <g id="pane3d_3">
   <g id="patch_5">
    <path d="M 376.156028 350.441069 
L 296.450056 313.999689 
L 108.990241 326.432947 
L 171.398226 365.679665 
" style="fill: none; opacity: 0.5; stroke: #ffffff; stroke-linejoin: miter"/>
   </g>
  </g>
  <g id="grid3d_1">
   <g id="Line3DCollection_1">
    <path d="M 162.246432 359.924346 
L 364.505117 345.1143 
L 366.490886 133.416169 
" style="fill: none; stroke: #b0b0b0; stroke-width: 0.8"/>
    <path d="M 148.243091 351.118018 
L 346.652912 336.952315 
L 348.320519 129.767829 
" style="fill: none; stroke: #b0b0b0; stroke-width: 0.8"/>
    <path d="M 134.853582 342.697713 
L 329.555009 329.135195 
L 330.929455 126.275961 
" style="fill: none; stroke: #b0b0b0; stroke-width: 0.8"/>
    <path d="M 122.038411 334.638594 
L 313.16459 321.641534 
L 314.268612 122.93071 
" style="fill: none; stroke: #b0b0b0; stroke-width: 0.8"/>
    <path d="M 109.7614 326.917908 
L 297.438633 314.451665 
L 298.292944 119.723033 
" style="fill: none; stroke: #b0b0b0; stroke-width: 0.8"/>
   </g>
  </g>
  <g id="grid3d_2">
   <g id="Line3DCollection_2">
    <path d="M 291.565561 119.688374 
L 290.80715 314.373955 
L 370.014908 350.898107 
" style="fill: none; stroke: #b0b0b0; stroke-width: 0.8"/>
    <path d="M 265.421534 120.45085 
L 265.033166 316.083412 
L 341.947636 352.986945 
" style="fill: none; stroke: #b0b0b0; stroke-width: 0.8"/>
    <path d="M 239.015201 121.220976 
L 239.004304 317.809775 
L 313.573311 355.098634 
" style="fill: none; stroke: #b0b0b0; stroke-width: 0.8"/>
    <path d="M 212.342594 121.998868 
L 212.716765 319.553294 
L 284.886866 357.233552 
" style="fill: none; stroke: #b0b0b0; stroke-width: 0.8"/>
    <path d="M 185.399667 122.784644 
L 186.166674 321.314226 
L 255.883124 359.392084 
" style="fill: none; stroke: #b0b0b0; stroke-width: 0.8"/>
    <path d="M 158.182288 123.578424 
L 159.350076 323.092835 
L 226.55679 361.574624 
" style="fill: none; stroke: #b0b0b0; stroke-width: 0.8"/>
    <path d="M 130.686242 124.380331 
L 132.26294 324.889387 
L 196.902453 363.781575 
" style="fill: none; stroke: #b0b0b0; stroke-width: 0.8"/>
   </g>
  </g>
  <g id="grid3d_3">
   <g id="Line3DCollection_3">
    <path d="M 376.580193 309.058807 
L 296.611996 276.459159 
L 108.617593 287.579534 
" style="fill: none; stroke: #b0b0b0; stroke-width: 0.8"/>
    <path d="M 377.02144 266.009851 
L 296.780359 237.429937 
L 108.230089 247.17715 
" style="fill: none; stroke: #b0b0b0; stroke-width: 0.8"/>
    <path d="M 377.465512 222.685366 
L 296.949696 198.174854 
L 107.840261 206.532509 
" style="fill: none; stroke: #b0b0b0; stroke-width: 0.8"/>
    <path d="M 377.912435 179.082699 
L 297.120016 158.691944 
L 107.448088 165.643424 
" style="fill: none; stroke: #b0b0b0; stroke-width: 0.8"/>
   </g>
  </g>
  <g id="axis3d_1">
   <g id="line2d_1">
    <path d="M 108.990241 326.432947 
L 171.398226 365.679665 
" style="fill: none; stroke: #000000; stroke-width: 0.8; stroke-linecap: square"/>
   </g>
   <g id="xtick_1">
    <g id="line2d_2">
     <path d="M 163.927341 359.801264 
L 158.881453 360.17074 
" style="fill: none; stroke: #000000; stroke-width: 0.8; stroke-linecap: square"/>
    </g>
    <g id="text_1">
     <!-- −4 -->
     <g transform="translate(129.937137 394.833694) scale(0.16 -0.16)">
      <defs>
       <path id="DejaVuSans-2212" d="M 678 2272 
L 4684 2272 
L 4684 1741 
L 678 1741 
L 678 2272 
z
" transform="scale(0.015625)"/>
       <path id="DejaVuSans-34" d="M 2419 4116 
L 825 1625 
L 2419 1625 
L 2419 4116 
z
M 2253 4666 
L 3047 4666 
L 3047 1625 
L 3713 1625 
L 3713 1100 
L 3047 1100 
L 3047 0 
L 2419 0 
L 2419 1100 
L 313 1100 
L 313 1709 
L 2253 4666 
z
" transform="scale(0.015625)"/>
      </defs>
      <use xlink:href="#DejaVuSans-2212"/>
      <use xlink:href="#DejaVuSans-34" transform="translate(83.789062 0)"/>
     </g>
    </g>
   </g>
   <g id="xtick_2">
    <g id="line2d_3">
     <path d="M 149.890632 351.00039 
L 144.94498 351.35349 
" style="fill: none; stroke: #000000; stroke-width: 0.8; stroke-linecap: square"/>
    </g>
    <g id="text_2">
     <!-- −2 -->
     <g transform="translate(116.363531 385.496904) scale(0.16 -0.16)">
      <defs>
       <path id="DejaVuSans-32" d="M 1228 531 
L 3431 531 
L 3431 0 
L 469 0 
L 469 531 
Q 828 903 1448 1529 
Q 2069 2156 2228 2338 
Q 2531 2678 2651 2914 
Q 2772 3150 2772 3378 
Q 2772 3750 2511 3984 
Q 2250 4219 1831 4219 
Q 1534 4219 1204 4116 
Q 875 4013 500 3803 
L 500 4441 
Q 881 4594 1212 4672 
Q 1544 4750 1819 4750 
Q 2544 4750 2975 4387 
Q 3406 4025 3406 3419 
Q 3406 3131 3298 2873 
Q 3191 2616 2906 2266 
Q 2828 2175 2409 1742 
Q 1991 1309 1228 531 
z
" transform="scale(0.015625)"/>
      </defs>
      <use xlink:href="#DejaVuSans-2212"/>
      <use xlink:href="#DejaVuSans-32" transform="translate(83.789062 0)"/>
     </g>
    </g>
   </g>
   <g id="xtick_3">
    <g id="line2d_4">
     <path d="M 136.469034 342.585184 
L 131.619774 342.922974 
" style="fill: none; stroke: #000000; stroke-width: 0.8; stroke-linecap: square"/>
    </g>
    <g id="text_3">
     <!-- 0 -->
     <g transform="translate(110.089959 376.570277) scale(0.16 -0.16)">
      <defs>
       <path id="DejaVuSans-30" d="M 2034 4250 
Q 1547 4250 1301 3770 
Q 1056 3291 1056 2328 
Q 1056 1369 1301 889 
Q 1547 409 2034 409 
Q 2525 409 2770 889 
Q 3016 1369 3016 2328 
Q 3016 3291 2770 3770 
Q 2525 4250 2034 4250 
z
M 2034 4750 
Q 2819 4750 3233 4129 
Q 3647 3509 3647 2328 
Q 3647 1150 3233 529 
Q 2819 -91 2034 -91 
Q 1250 -91 836 529 
Q 422 1150 422 2328 
Q 422 3509 836 4129 
Q 1250 4750 2034 4750 
z
" transform="scale(0.015625)"/>
      </defs>
      <use xlink:href="#DejaVuSans-30"/>
     </g>
    </g>
   </g>
   <g id="xtick_4">
    <g id="line2d_5">
     <path d="M 123.622982 334.530839 
L 118.866482 334.854293 
" style="fill: none; stroke: #000000; stroke-width: 0.8; stroke-linecap: square"/>
    </g>
    <g id="text_4">
     <!-- 2 -->
     <g transform="translate(97.670473 368.027364) scale(0.16 -0.16)">
      <use xlink:href="#DejaVuSans-32"/>
     </g>
    </g>
   </g>
   <g id="xtick_5">
    <g id="line2d_6">
     <path d="M 111.316231 326.81463 
L 106.649059 327.124642 
" style="fill: none; stroke: #000000; stroke-width: 0.8; stroke-linecap: square"/>
    </g>
    <g id="text_5">
     <!-- 4 -->
     <g transform="translate(85.773613 359.843947) scale(0.16 -0.16)">
      <use xlink:href="#DejaVuSans-34"/>
     </g>
    </g>
   </g>
   <g id="text_6">
    <!-- PC1 -->
    <g transform="translate(71.753042 400.481135) scale(0.2 -0.2)">
     <defs>
      <path id="DejaVuSans-Bold-50" d="M 588 4666 
L 2584 4666 
Q 3475 4666 3951 4270 
Q 4428 3875 4428 3144 
Q 4428 2409 3951 2014 
Q 3475 1619 2584 1619 
L 1791 1619 
L 1791 0 
L 588 0 
L 588 4666 
z
M 1791 3794 
L 1791 2491 
L 2456 2491 
Q 2806 2491 2997 2661 
Q 3188 2831 3188 3144 
Q 3188 3456 2997 3625 
Q 2806 3794 2456 3794 
L 1791 3794 
z
" transform="scale(0.015625)"/>
      <path id="DejaVuSans-Bold-43" d="M 4288 256 
Q 3956 84 3597 -3 
Q 3238 -91 2847 -91 
Q 1681 -91 1000 561 
Q 319 1213 319 2328 
Q 319 3447 1000 4098 
Q 1681 4750 2847 4750 
Q 3238 4750 3597 4662 
Q 3956 4575 4288 4403 
L 4288 3438 
Q 3953 3666 3628 3772 
Q 3303 3878 2944 3878 
Q 2300 3878 1931 3465 
Q 1563 3053 1563 2328 
Q 1563 1606 1931 1193 
Q 2300 781 2944 781 
Q 3303 781 3628 887 
Q 3953 994 4288 1222 
L 4288 256 
z
" transform="scale(0.015625)"/>
      <path id="DejaVuSans-Bold-31" d="M 750 831 
L 1813 831 
L 1813 3847 
L 722 3622 
L 722 4441 
L 1806 4666 
L 2950 4666 
L 2950 831 
L 4013 831 
L 4013 0 
L 750 0 
L 750 831 
z
" transform="scale(0.015625)"/>
     </defs>
     <use xlink:href="#DejaVuSans-Bold-50"/>
     <use xlink:href="#DejaVuSans-Bold-43" transform="translate(73.291016 0)"/>
     <use xlink:href="#DejaVuSans-Bold-31" transform="translate(146.679688 0)"/>
    </g>
   </g>
  </g>
  <g id="axis3d_2">
   <g id="line2d_7">
    <path d="M 376.156028 350.441069 
L 171.398226 365.679665 
" style="fill: none; stroke: #000000; stroke-width: 0.8; stroke-linecap: square"/>
   </g>
   <g id="xtick_6">
    <g id="line2d_8">
     <path d="M 369.315222 350.575469 
L 371.417818 351.545014 
" style="fill: none; stroke: #000000; stroke-width: 0.8; stroke-linecap: square"/>
    </g>
    <g id="text_7">
     <!-- −7.5 -->
     <g transform="translate(359.034492 387.947579) scale(0.16 -0.16)">
      <defs>
       <path id="DejaVuSans-37" d="M 525 4666 
L 3525 4666 
L 3525 4397 
L 1831 0 
L 1172 0 
L 2766 4134 
L 525 4134 
L 525 4666 
z
" transform="scale(0.015625)"/>
       <path id="DejaVuSans-2e" d="M 684 794 
L 1344 794 
L 1344 0 
L 684 0 
L 684 794 
z
" transform="scale(0.015625)"/>
       <path id="DejaVuSans-35" d="M 691 4666 
L 3169 4666 
L 3169 4134 
L 1269 4134 
L 1269 2991 
Q 1406 3038 1543 3061 
Q 1681 3084 1819 3084 
Q 2600 3084 3056 2656 
Q 3513 2228 3513 1497 
Q 3513 744 3044 326 
Q 2575 -91 1722 -91 
Q 1428 -91 1123 -41 
Q 819 9 494 109 
L 494 744 
Q 775 591 1075 516 
Q 1375 441 1709 441 
Q 2250 441 2565 725 
Q 2881 1009 2881 1497 
Q 2881 1984 2565 2268 
Q 2250 2553 1709 2553 
Q 1456 2553 1204 2497 
Q 953 2441 691 2322 
L 691 4666 
z
" transform="scale(0.015625)"/>
      </defs>
      <use xlink:href="#DejaVuSans-2212"/>
      <use xlink:href="#DejaVuSans-37" transform="translate(83.789062 0)"/>
      <use xlink:href="#DejaVuSans-2e" transform="translate(147.412109 0)"/>
      <use xlink:href="#DejaVuSans-35" transform="translate(179.199219 0)"/>
     </g>
    </g>
   </g>
   <g id="xtick_7">
    <g id="line2d_9">
     <path d="M 341.267859 352.660788 
L 343.310644 353.640916 
" style="fill: none; stroke: #000000; stroke-width: 0.8; stroke-linecap: square"/>
    </g>
    <g id="text_8">
     <!-- −5.0 -->
     <g transform="translate(330.764238 390.191593) scale(0.16 -0.16)">
      <use xlink:href="#DejaVuSans-2212"/>
      <use xlink:href="#DejaVuSans-35" transform="translate(83.789062 0)"/>
      <use xlink:href="#DejaVuSans-2e" transform="translate(147.412109 0)"/>
      <use xlink:href="#DejaVuSans-30" transform="translate(179.199219 0)"/>
     </g>
    </g>
   </g>
   <g id="xtick_8">
    <g id="line2d_10">
     <path d="M 312.913921 354.768901 
L 314.895458 355.759785 
" style="fill: none; stroke: #000000; stroke-width: 0.8; stroke-linecap: square"/>
    </g>
    <g id="text_9">
     <!-- −2.5 -->
     <g transform="translate(302.181948 392.460375) scale(0.16 -0.16)">
      <use xlink:href="#DejaVuSans-2212"/>
      <use xlink:href="#DejaVuSans-32" transform="translate(83.789062 0)"/>
      <use xlink:href="#DejaVuSans-2e" transform="translate(147.412109 0)"/>
      <use xlink:href="#DejaVuSans-35" transform="translate(179.199219 0)"/>
     </g>
    </g>
   </g>
   <g id="xtick_9">
    <g id="line2d_11">
     <path d="M 284.248355 356.900183 
L 286.167168 357.902002 
" style="fill: none; stroke: #000000; stroke-width: 0.8; stroke-linecap: square"/>
    </g>
    <g id="text_10">
     <!-- 0.0 -->
     <g transform="translate(279.986177 394.754339) scale(0.16 -0.16)">
      <use xlink:href="#DejaVuSans-30"/>
      <use xlink:href="#DejaVuSans-2e" transform="translate(63.623047 0)"/>
      <use xlink:href="#DejaVuSans-30" transform="translate(95.410156 0)"/>
     </g>
    </g>
   </g>
   <g id="xtick_10">
    <g id="line2d_12">
     <path d="M 255.265995 359.055019 
L 257.12057 360.067955 
" style="fill: none; stroke: #000000; stroke-width: 0.8; stroke-linecap: square"/>
    </g>
    <g id="text_11">
     <!-- 2.5 -->
     <g transform="translate(250.764114 397.073904) scale(0.16 -0.16)">
      <use xlink:href="#DejaVuSans-32"/>
      <use xlink:href="#DejaVuSans-2e" transform="translate(63.623047 0)"/>
      <use xlink:href="#DejaVuSans-35" transform="translate(95.410156 0)"/>
     </g>
    </g>
   </g>
   <g id="xtick_11">
    <g id="line2d_13">
     <path d="M 225.961559 361.233802 
L 227.750344 362.25804 
" style="fill: none; stroke: #000000; stroke-width: 0.8; stroke-linecap: square"/>
    </g>
    <g id="text_12">
     <!-- 5.0 -->
     <g transform="translate(221.214079 399.419504) scale(0.16 -0.16)">
      <use xlink:href="#DejaVuSans-35"/>
      <use xlink:href="#DejaVuSans-2e" transform="translate(63.623047 0)"/>
      <use xlink:href="#DejaVuSans-30" transform="translate(95.410156 0)"/>
     </g>
    </g>
   </g>
   <g id="xtick_12">
    <g id="line2d_14">
     <path d="M 196.32965 363.436932 
L 198.051052 364.472662 
" style="fill: none; stroke: #000000; stroke-width: 0.8; stroke-linecap: square"/>
    </g>
    <g id="text_13">
     <!-- 7.5 -->
     <g transform="translate(191.33052 401.791577) scale(0.16 -0.16)">
      <use xlink:href="#DejaVuSans-37"/>
      <use xlink:href="#DejaVuSans-2e" transform="translate(63.623047 0)"/>
      <use xlink:href="#DejaVuSans-35" transform="translate(95.410156 0)"/>
     </g>
    </g>
   </g>
   <g id="text_14">
    <!-- PC2 -->
    <g transform="translate(272.01113 421.99113) scale(0.2 -0.2)">
     <defs>
      <path id="DejaVuSans-Bold-32" d="M 1844 884 
L 3897 884 
L 3897 0 
L 506 0 
L 506 884 
L 2209 2388 
Q 2438 2594 2547 2791 
Q 2656 2988 2656 3200 
Q 2656 3528 2436 3728 
Q 2216 3928 1850 3928 
Q 1569 3928 1234 3808 
Q 900 3688 519 3450 
L 519 4475 
Q 925 4609 1322 4679 
Q 1719 4750 2100 4750 
Q 2938 4750 3402 4381 
Q 3866 4013 3866 3353 
Q 3866 2972 3669 2642 
Q 3472 2313 2841 1759 
L 1844 884 
z
" transform="scale(0.015625)"/>
     </defs>
     <use xlink:href="#DejaVuSans-Bold-50"/>
     <use xlink:href="#DejaVuSans-Bold-43" transform="translate(73.291016 0)"/>
     <use xlink:href="#DejaVuSans-Bold-32" transform="translate(146.679688 0)"/>
    </g>
   </g>
  </g>
  <g id="axis3d_3">
   <g id="line2d_15">
    <path d="M 376.156028 350.441069 
L 378.356094 135.798527 
" style="fill: none; stroke: #000000; stroke-width: 0.8; stroke-linecap: square"/>
   </g>
   <g id="xtick_13">
    <g id="line2d_16">
     <path d="M 375.873663 308.770785 
L 377.996829 309.63631 
" style="fill: none; stroke: #000000; stroke-width: 0.8; stroke-linecap: square"/>
    </g>
    <g id="text_15">
     <!-- −0.2 -->
     <g transform="translate(385.346725 323.476176) scale(0.16 -0.16)">
      <use xlink:href="#DejaVuSans-2212"/>
      <use xlink:href="#DejaVuSans-30" transform="translate(83.789062 0)"/>
      <use xlink:href="#DejaVuSans-2e" transform="translate(147.412109 0)"/>
      <use xlink:href="#DejaVuSans-32" transform="translate(179.199219 0)"/>
     </g>
    </g>
   </g>
   <g id="xtick_14">
    <g id="line2d_17">
     <path d="M 376.312286 265.757268 
L 378.44335 266.516301 
" style="fill: none; stroke: #000000; stroke-width: 0.8; stroke-linecap: square"/>
    </g>
    <g id="text_16">
     <!-- 0.0 -->
     <g transform="translate(392.585177 280.149209) scale(0.16 -0.16)">
      <use xlink:href="#DejaVuSans-30"/>
      <use xlink:href="#DejaVuSans-2e" transform="translate(63.623047 0)"/>
      <use xlink:href="#DejaVuSans-30" transform="translate(95.410156 0)"/>
     </g>
    </g>
   </g>
   <g id="xtick_15">
    <g id="line2d_18">
     <path d="M 376.753715 222.468682 
L 378.892735 223.119839 
" style="fill: none; stroke: #000000; stroke-width: 0.8; stroke-linecap: square"/>
    </g>
    <g id="text_17">
     <!-- 0.2 -->
     <g transform="translate(393.123324 236.543089) scale(0.16 -0.16)">
      <use xlink:href="#DejaVuSans-30"/>
      <use xlink:href="#DejaVuSans-2e" transform="translate(63.623047 0)"/>
      <use xlink:href="#DejaVuSans-32" transform="translate(95.410156 0)"/>
     </g>
    </g>
   </g>
   <g id="xtick_16">
    <g id="line2d_19">
     <path d="M 377.197975 178.90238 
L 379.345009 179.444258 
" style="fill: none; stroke: #000000; stroke-width: 0.8; stroke-linecap: square"/>
    </g>
    <g id="text_18">
     <!-- 0.4 -->
     <g transform="translate(393.664949 192.655112) scale(0.16 -0.16)">
      <use xlink:href="#DejaVuSans-30"/>
      <use xlink:href="#DejaVuSans-2e" transform="translate(63.623047 0)"/>
      <use xlink:href="#DejaVuSans-34" transform="translate(95.410156 0)"/>
     </g>
    </g>
   </g>
   <g id="text_19">
    <!-- PC3 -->
    <g transform="translate(420.71161 253.712113) scale(0.2 -0.2)">
     <defs>
      <path id="DejaVuSans-Bold-33" d="M 2981 2516 
Q 3453 2394 3698 2092 
Q 3944 1791 3944 1325 
Q 3944 631 3412 270 
Q 2881 -91 1863 -91 
Q 1503 -91 1142 -33 
Q 781 25 428 141 
L 428 1069 
Q 766 900 1098 814 
Q 1431 728 1753 728 
Q 2231 728 2486 893 
Q 2741 1059 2741 1369 
Q 2741 1688 2480 1852 
Q 2219 2016 1709 2016 
L 1228 2016 
L 1228 2791 
L 1734 2791 
Q 2188 2791 2409 2933 
Q 2631 3075 2631 3366 
Q 2631 3634 2415 3781 
Q 2200 3928 1806 3928 
Q 1516 3928 1219 3862 
Q 922 3797 628 3669 
L 628 4550 
Q 984 4650 1334 4700 
Q 1684 4750 2022 4750 
Q 2931 4750 3382 4451 
Q 3834 4153 3834 3553 
Q 3834 3144 3618 2883 
Q 3403 2622 2981 2516 
z
" transform="scale(0.015625)"/>
     </defs>
     <use xlink:href="#DejaVuSans-Bold-50"/>
     <use xlink:href="#DejaVuSans-Bold-43" transform="translate(73.291016 0)"/>
     <use xlink:href="#DejaVuSans-Bold-33" transform="translate(146.679688 0)"/>
    </g>
   </g>
  </g>
  <g id="axes_1">
   <g id="line2d_20">
    <path d="M 300.462316 250.905514 
L 226.697074 140.548485 
" clip-path="url(#pb70d399718)" style="fill: none; stroke: #dc143c; stroke-width: 3.5; stroke-linecap: square"/>
   </g>
   <g id="line2d_21">
    <path d="M 242.688857 254.043141 
L 135.430825 258.097415 
" clip-path="url(#pb70d399718)" style="fill: none; stroke: #ff8c00; stroke-width: 3; stroke-linecap: square"/>
   </g>
   <g id="line2d_22">
    <path d="M 242.688857 254.043141 
L 270.759186 301.53736 
" clip-path="url(#pb70d399718)" style="fill: none; stroke: #2e8b57; stroke-width: 3; stroke-linecap: square"/>
   </g>
   <g id="Path3DCollection_1">
    <path d="M 220.48395 316.460159 
L 216.011815 325.404431 
L 224.956086 325.404431 
z
" clip-path="url(#pb70d399718)" style="fill: #f8fa9e; fill-opacity: 0.95"/>
    <path d="M 238.270911 315.807857 
L 233.798775 324.752129 
L 242.743047 324.752129 
z
" clip-path="url(#pb70d399718)" style="fill: #cafa9e; fill-opacity: 0.95"/>
    <path d="M 255.962058 315.159069 
L 251.489922 324.103341 
L 260.434194 324.103341 
z
" clip-path="url(#pb70d399718)" style="fill: #9efaa0; fill-opacity: 0.95"/>
    <path d="M 273.770548 314.505978 
L 269.298412 323.45025 
L 278.242684 323.45025 
z
" clip-path="url(#pb70d399718)" style="fill: #9eface; fill-opacity: 0.95"/>
    <path d="M 291.58985 313.85249 
L 287.117714 322.796762 
L 296.061986 322.796762 
z
" clip-path="url(#pb70d399718)" style="fill: #9ef8fa; fill-opacity: 0.95"/>
    <path d="M 309.313174 313.202522 
L 304.841038 322.146794 
L 313.78531 322.146794 
z
" clip-path="url(#pb70d399718)" style="fill: #9ecafa; fill-opacity: 0.95"/>
    <path d="M 327.154065 312.548242 
L 322.681929 321.492514 
L 331.626201 321.492514 
z
" clip-path="url(#pb70d399718)" style="fill: #a09efa; fill-opacity: 0.95"/>
    <path d="M 215.345726 308.701022 
L 210.87359 317.645294 
L 219.817862 317.645294 
z
" clip-path="url(#pb70d399718)" style="fill: #f5f87a; fill-opacity: 0.95"/>
    <path d="M 233.290302 308.040508 
L 228.818166 316.98478 
L 237.762438 316.98478 
z
" clip-path="url(#pb70d399718)" style="fill: #b6f87a; fill-opacity: 0.95"/>
    <path d="M 251.138313 307.383549 
L 246.666177 316.327821 
L 255.610449 316.327821 
z
" clip-path="url(#pb70d399718)" style="fill: #7af87c; fill-opacity: 0.95"/>
    <path d="M 269.104805 306.722228 
L 264.632669 315.6665 
L 273.576941 315.6665 
z
" clip-path="url(#pb70d399718)" style="fill: #7af8bb; fill-opacity: 0.95"/>
    <path d="M 287.082302 306.060502 
L 282.610166 315.004774 
L 291.554438 315.004774 
z
" clip-path="url(#pb70d399718)" style="fill: #7af5f8; fill-opacity: 0.95"/>
    <path d="M 304.963067 305.402337 
L 300.490931 314.346609 
L 309.435203 314.346609 
z
" clip-path="url(#pb70d399718)" style="fill: #7ab6f8; fill-opacity: 0.95"/>
    <path d="M 322.96254 304.739802 
L 318.490404 313.684074 
L 327.434676 313.684074 
z
" clip-path="url(#pb70d399718)" style="fill: #7c7af8; fill-opacity: 0.95"/>
    <path d="M 210.146332 300.849515 
L 205.674196 309.793787 
L 214.618468 309.793787 
z
" clip-path="url(#pb70d399718)" style="fill: #f3f655; fill-opacity: 0.95"/>
    <path d="M 228.250374 300.180648 
L 223.778238 309.12492 
L 232.722509 309.12492 
z
" clip-path="url(#pb70d399718)" style="fill: #a2f655; fill-opacity: 0.95"/>
    <path d="M 246.25709 299.515377 
L 241.784954 308.459649 
L 250.729226 308.459649 
z
" clip-path="url(#pb70d399718)" style="fill: #55f659; fill-opacity: 0.95"/>
    <path d="M 264.383441 298.845686 
L 259.911305 307.789958 
L 268.855577 307.789958 
z
" clip-path="url(#pb70d399718)" style="fill: #55f6a9; fill-opacity: 0.95"/>
    <path d="M 282.520994 298.175581 
L 278.048858 307.119853 
L 286.99313 307.119853 
z
" clip-path="url(#pb70d399718)" style="fill: #55f3f6; fill-opacity: 0.95"/>
    <path d="M 300.561053 297.509078 
L 296.088917 306.45335 
L 305.033189 306.45335 
z
" clip-path="url(#pb70d399718)" style="fill: #55a3f6; fill-opacity: 0.95"/>
    <path d="M 318.720977 296.838146 
L 314.248841 305.782418 
L 323.193113 305.782418 
z
" clip-path="url(#pb70d399718)" style="fill: #5955f6; fill-opacity: 0.95"/>
    <path d="M 204.820603 292.807232 
L 200.348467 301.751504 
L 209.292739 301.751504 
z
" clip-path="url(#pb70d399718)" style="fill: #f0f431; fill-opacity: 0.95"/>
    <path d="M 223.087956 292.129765 
L 218.61582 301.074037 
L 227.560092 301.074037 
z
" clip-path="url(#pb70d399718)" style="fill: #8ff431; fill-opacity: 0.95"/>
    <path d="M 241.257208 291.455935 
L 236.785072 300.400207 
L 245.729344 300.400207 
z
" clip-path="url(#pb70d399718)" style="fill: #31f435; fill-opacity: 0.95"/>
    <path d="M 259.547276 290.777625 
L 255.07514 299.721897 
L 264.019412 299.721897 
z
" clip-path="url(#pb70d399718)" style="fill: #31f497; fill-opacity: 0.95"/>
    <path d="M 277.848752 290.098892 
L 273.376616 299.043164 
L 282.320888 299.043164 
z
" clip-path="url(#pb70d399718)" style="fill: #31f0f4; fill-opacity: 0.95"/>
    <path d="M 296.051954 289.423804 
L 291.579818 298.368076 
L 300.52409 298.368076 
z
" clip-path="url(#pb70d399718)" style="fill: #318ff4; fill-opacity: 0.95"/>
    <path d="M 314.376208 288.744226 
L 309.904072 297.688498 
L 318.848344 297.688498 
z
" clip-path="url(#pb70d399718)" style="fill: #3531f4; fill-opacity: 0.95"/>
    <path d="M 199.396953 284.617079 
L 194.924817 293.561351 
L 203.869088 293.561351 
z
" clip-path="url(#pb70d399718)" style="fill: #eef20d; fill-opacity: 0.95"/>
    <path d="M 217.83059 283.930807 
L 213.358454 292.875078 
L 222.302726 292.875078 
z
" clip-path="url(#pb70d399718)" style="fill: #7bf20d; fill-opacity: 0.95"/>
    <path d="M 236.165337 283.248215 
L 231.693201 292.192487 
L 240.637473 292.192487 
z
" clip-path="url(#pb70d399718)" style="fill: #0df211; fill-opacity: 0.95"/>
    <path d="M 254.622107 282.561081 
L 250.149971 291.505353 
L 259.094243 291.505353 
z
" clip-path="url(#pb70d399718)" style="fill: #0df284; fill-opacity: 0.95"/>
    <path d="M 273.090495 281.873515 
L 268.618359 290.817786 
L 277.562631 290.817786 
z
" clip-path="url(#pb70d399718)" style="fill: #0dedf2; fill-opacity: 0.95"/>
    <path d="M 291.459817 281.189636 
L 286.987682 290.133908 
L 295.931953 290.133908 
z
" clip-path="url(#pb70d399718)" style="fill: #0d7bf2; fill-opacity: 0.95"/>
    <path d="M 309.951403 280.501206 
L 305.479267 289.445478 
L 314.423539 289.445478 
z
" clip-path="url(#pb70d399718)" style="fill: #110df2; fill-opacity: 0.95"/>
    <path d="M 193.906039 276.325354 
L 189.433903 285.269626 
L 198.378175 285.269626 
z
" clip-path="url(#pb70d399718)" style="fill: #cace0b; fill-opacity: 0.95"/>
    <path d="M 212.507992 275.630119 
L 208.035856 284.574391 
L 216.980128 284.574391 
z
" clip-path="url(#pb70d399718)" style="fill: #68ce0b; fill-opacity: 0.95"/>
    <path d="M 231.010259 274.93861 
L 226.538124 283.882882 
L 235.482395 283.882882 
z
" clip-path="url(#pb70d399718)" style="fill: #0bce0f; fill-opacity: 0.95"/>
    <path d="M 249.635772 274.242494 
L 245.163636 283.186766 
L 254.107908 283.186766 
z
" clip-path="url(#pb70d399718)" style="fill: #0bce70; fill-opacity: 0.95"/>
    <path d="M 268.273116 273.545936 
L 263.80098 282.490208 
L 272.745252 282.490208 
z
" clip-path="url(#pb70d399718)" style="fill: #0bcace; fill-opacity: 0.95"/>
    <path d="M 286.810597 272.85311 
L 282.338461 281.797382 
L 291.282733 281.797382 
z
" clip-path="url(#pb70d399718)" style="fill: #0b69ce; fill-opacity: 0.95"/>
    <path d="M 305.471568 272.155669 
L 300.999432 281.099941 
L 309.943704 281.099941 
z
" clip-path="url(#pb70d399718)" style="fill: #0f0bce; fill-opacity: 0.95"/>
    <path d="M 188.278894 267.827909 
L 183.806758 276.772181 
L 192.75103 276.772181 
z
" clip-path="url(#pb70d399718)" style="fill: #a6aa09; fill-opacity: 0.95"/>
    <path d="M 207.053307 267.123439 
L 202.581171 276.067711 
L 211.525443 276.067711 
z
" clip-path="url(#pb70d399718)" style="fill: #56aa09; fill-opacity: 0.95"/>
    <path d="M 225.72722 266.42274 
L 221.255084 275.367012 
L 230.199356 275.367012 
z
" clip-path="url(#pb70d399718)" style="fill: #09aa0c; fill-opacity: 0.95"/>
    <path d="M 244.525634 265.717369 
L 240.053498 274.661641 
L 248.99777 274.661641 
z
" clip-path="url(#pb70d399718)" style="fill: #09aa5c; fill-opacity: 0.95"/>
    <path d="M 263.336101 265.011547 
L 258.863965 273.955818 
L 267.808237 273.955818 
z
" clip-path="url(#pb70d399718)" style="fill: #09a6aa; fill-opacity: 0.95"/>
    <path d="M 282.045888 264.309502 
L 277.573752 273.253773 
L 286.518024 273.253773 
z
" clip-path="url(#pb70d399718)" style="fill: #0956aa; fill-opacity: 0.95"/>
    <path d="M 300.880425 263.602776 
L 296.408289 272.547047 
L 305.352561 272.547047 
z
" clip-path="url(#pb70d399718)" style="fill: #0c09aa; fill-opacity: 0.95"/>
   </g>
   <g id="text_20">
    <!-- Panel B — Shape attend (paper_b) -->
    <g transform="translate(21.6 38.316562) scale(0.22 -0.22)">
     <defs>
      <path id="DejaVuSans-Bold-61" d="M 2106 1575 
Q 1756 1575 1579 1456 
Q 1403 1338 1403 1106 
Q 1403 894 1545 773 
Q 1688 653 1941 653 
Q 2256 653 2472 879 
Q 2688 1106 2688 1447 
L 2688 1575 
L 2106 1575 
z
M 3816 1997 
L 3816 0 
L 2688 0 
L 2688 519 
Q 2463 200 2181 54 
Q 1900 -91 1497 -91 
Q 953 -91 614 226 
Q 275 544 275 1050 
Q 275 1666 698 1953 
Q 1122 2241 2028 2241 
L 2688 2241 
L 2688 2328 
Q 2688 2594 2478 2717 
Q 2269 2841 1825 2841 
Q 1466 2841 1156 2769 
Q 847 2697 581 2553 
L 581 3406 
Q 941 3494 1303 3539 
Q 1666 3584 2028 3584 
Q 2975 3584 3395 3211 
Q 3816 2838 3816 1997 
z
" transform="scale(0.015625)"/>
      <path id="DejaVuSans-Bold-6e" d="M 4056 2131 
L 4056 0 
L 2931 0 
L 2931 347 
L 2931 1631 
Q 2931 2084 2911 2256 
Q 2891 2428 2841 2509 
Q 2775 2619 2662 2680 
Q 2550 2741 2406 2741 
Q 2056 2741 1856 2470 
Q 1656 2200 1656 1722 
L 1656 0 
L 538 0 
L 538 3500 
L 1656 3500 
L 1656 2988 
Q 1909 3294 2193 3439 
Q 2478 3584 2822 3584 
Q 3428 3584 3742 3212 
Q 4056 2841 4056 2131 
z
" transform="scale(0.015625)"/>
      <path id="DejaVuSans-Bold-65" d="M 4031 1759 
L 4031 1441 
L 1416 1441 
Q 1456 1047 1700 850 
Q 1944 653 2381 653 
Q 2734 653 3104 758 
Q 3475 863 3866 1075 
L 3866 213 
Q 3469 63 3072 -14 
Q 2675 -91 2278 -91 
Q 1328 -91 801 392 
Q 275 875 275 1747 
Q 275 2603 792 3093 
Q 1309 3584 2216 3584 
Q 3041 3584 3536 3087 
Q 4031 2591 4031 1759 
z
M 2881 2131 
Q 2881 2450 2695 2645 
Q 2509 2841 2209 2841 
Q 1884 2841 1681 2658 
Q 1478 2475 1428 2131 
L 2881 2131 
z
" transform="scale(0.015625)"/>
      <path id="DejaVuSans-Bold-6c" d="M 538 4863 
L 1656 4863 
L 1656 0 
L 538 0 
L 538 4863 
z
" transform="scale(0.015625)"/>
      <path id="DejaVuSans-Bold-20" transform="scale(0.015625)"/>
      <path id="DejaVuSans-Bold-42" d="M 2456 2859 
Q 2741 2859 2887 2984 
Q 3034 3109 3034 3353 
Q 3034 3594 2887 3720 
Q 2741 3847 2456 3847 
L 1791 3847 
L 1791 2859 
L 2456 2859 
z
M 2497 819 
Q 2859 819 3042 972 
Q 3225 1125 3225 1434 
Q 3225 1738 3044 1889 
Q 2863 2041 2497 2041 
L 1791 2041 
L 1791 819 
L 2497 819 
z
M 3616 2497 
Q 4003 2384 4215 2081 
Q 4428 1778 4428 1338 
Q 4428 663 3972 331 
Q 3516 0 2584 0 
L 588 0 
L 588 4666 
L 2394 4666 
Q 3366 4666 3802 4372 
Q 4238 4078 4238 3431 
Q 4238 3091 4078 2852 
Q 3919 2613 3616 2497 
z
" transform="scale(0.015625)"/>
      <path id="DejaVuSans-Bold-2014" d="M 344 2156 
L 6056 2156 
L 6056 1350 
L 344 1350 
L 344 2156 
z
" transform="scale(0.015625)"/>
      <path id="DejaVuSans-Bold-53" d="M 3834 4519 
L 3834 3531 
Q 3450 3703 3084 3790 
Q 2719 3878 2394 3878 
Q 1963 3878 1756 3759 
Q 1550 3641 1550 3391 
Q 1550 3203 1689 3098 
Q 1828 2994 2194 2919 
L 2706 2816 
Q 3484 2659 3812 2340 
Q 4141 2022 4141 1434 
Q 4141 663 3683 286 
Q 3225 -91 2284 -91 
Q 1841 -91 1394 -6 
Q 947 78 500 244 
L 500 1259 
Q 947 1022 1364 901 
Q 1781 781 2169 781 
Q 2563 781 2772 912 
Q 2981 1044 2981 1288 
Q 2981 1506 2839 1625 
Q 2697 1744 2272 1838 
L 1806 1941 
Q 1106 2091 782 2419 
Q 459 2747 459 3303 
Q 459 4000 909 4375 
Q 1359 4750 2203 4750 
Q 2588 4750 2994 4692 
Q 3400 4634 3834 4519 
z
" transform="scale(0.015625)"/>
      <path id="DejaVuSans-Bold-68" d="M 4056 2131 
L 4056 0 
L 2931 0 
L 2931 347 
L 2931 1625 
Q 2931 2084 2911 2256 
Q 2891 2428 2841 2509 
Q 2775 2619 2662 2680 
Q 2550 2741 2406 2741 
Q 2056 2741 1856 2470 
Q 1656 2200 1656 1722 
L 1656 0 
L 538 0 
L 538 4863 
L 1656 4863 
L 1656 2988 
Q 1909 3294 2193 3439 
Q 2478 3584 2822 3584 
Q 3428 3584 3742 3212 
Q 4056 2841 4056 2131 
z
" transform="scale(0.015625)"/>
      <path id="DejaVuSans-Bold-70" d="M 1656 506 
L 1656 -1331 
L 538 -1331 
L 538 3500 
L 1656 3500 
L 1656 2988 
Q 1888 3294 2169 3439 
Q 2450 3584 2816 3584 
Q 3463 3584 3878 3070 
Q 4294 2556 4294 1747 
Q 4294 938 3878 423 
Q 3463 -91 2816 -91 
Q 2450 -91 2169 54 
Q 1888 200 1656 506 
z
M 2400 2772 
Q 2041 2772 1848 2508 
Q 1656 2244 1656 1747 
Q 1656 1250 1848 986 
Q 2041 722 2400 722 
Q 2759 722 2948 984 
Q 3138 1247 3138 1747 
Q 3138 2247 2948 2509 
Q 2759 2772 2400 2772 
z
" transform="scale(0.015625)"/>
      <path id="DejaVuSans-Bold-74" d="M 1759 4494 
L 1759 3500 
L 2913 3500 
L 2913 2700 
L 1759 2700 
L 1759 1216 
Q 1759 972 1856 886 
Q 1953 800 2241 800 
L 2816 800 
L 2816 0 
L 1856 0 
Q 1194 0 917 276 
Q 641 553 641 1216 
L 641 2700 
L 84 2700 
L 84 3500 
L 641 3500 
L 641 4494 
L 1759 4494 
z
" transform="scale(0.015625)"/>
      <path id="DejaVuSans-Bold-64" d="M 2919 2988 
L 2919 4863 
L 4044 4863 
L 4044 0 
L 2919 0 
L 2919 506 
Q 2688 197 2409 53 
Q 2131 -91 1766 -91 
Q 1119 -91 703 423 
Q 288 938 288 1747 
Q 288 2556 703 3070 
Q 1119 3584 1766 3584 
Q 2128 3584 2408 3439 
Q 2688 3294 2919 2988 
z
M 2181 722 
Q 2541 722 2730 984 
Q 2919 1247 2919 1747 
Q 2919 2247 2730 2509 
Q 2541 2772 2181 2772 
Q 1825 2772 1636 2509 
Q 1447 2247 1447 1747 
Q 1447 1247 1636 984 
Q 1825 722 2181 722 
z
" transform="scale(0.015625)"/>
      <path id="DejaVuSans-Bold-28" d="M 2413 -844 
L 1484 -844 
Q 1006 -72 778 623 
Q 550 1319 550 2003 
Q 550 2688 779 3389 
Q 1009 4091 1484 4856 
L 2413 4856 
Q 2013 4116 1813 3408 
Q 1613 2700 1613 2009 
Q 1613 1319 1811 609 
Q 2009 -100 2413 -844 
z
" transform="scale(0.015625)"/>
      <path id="DejaVuSans-Bold-72" d="M 3138 2547 
Q 2991 2616 2845 2648 
Q 2700 2681 2553 2681 
Q 2122 2681 1889 2404 
Q 1656 2128 1656 1613 
L 1656 0 
L 538 0 
L 538 3500 
L 1656 3500 
L 1656 2925 
Q 1872 3269 2151 3426 
Q 2431 3584 2822 3584 
Q 2878 3584 2943 3579 
Q 3009 3575 3134 3559 
L 3138 2547 
z
" transform="scale(0.015625)"/>
      <path id="DejaVuSans-Bold-5f" d="M 3200 -916 
L 3200 -1509 
L 0 -1509 
L 0 -916 
L 3200 -916 
z
" transform="scale(0.015625)"/>
      <path id="DejaVuSans-Bold-62" d="M 2400 722 
Q 2759 722 2948 984 
Q 3138 1247 3138 1747 
Q 3138 2247 2948 2509 
Q 2759 2772 2400 2772 
Q 2041 2772 1848 2508 
Q 1656 2244 1656 1747 
Q 1656 1250 1848 986 
Q 2041 722 2400 722 
z
M 1656 2988 
Q 1888 3294 2169 3439 
Q 2450 3584 2816 3584 
Q 3463 3584 3878 3070 
Q 4294 2556 4294 1747 
Q 4294 938 3878 423 
Q 3463 -91 2816 -91 
Q 2450 -91 2169 54 
Q 1888 200 1656 506 
L 1656 0 
L 538 0 
L 538 4863 
L 1656 4863 
L 1656 2988 
z
" transform="scale(0.015625)"/>
      <path id="DejaVuSans-Bold-29" d="M 513 -844 
Q 913 -100 1113 609 
Q 1313 1319 1313 2009 
Q 1313 2700 1113 3408 
Q 913 4116 513 4856 
L 1441 4856 
Q 1916 4091 2145 3389 
Q 2375 2688 2375 2003 
Q 2375 1319 2147 623 
Q 1919 -72 1441 -844 
L 513 -844 
z
" transform="scale(0.015625)"/>
     </defs>
     <use xlink:href="#DejaVuSans-Bold-50"/>
     <use xlink:href="#DejaVuSans-Bold-61" transform="translate(70.666016 0)"/>
     <use xlink:href="#DejaVuSans-Bold-6e" transform="translate(138.146484 0)"/>
     <use xlink:href="#DejaVuSans-Bold-65" transform="translate(209.337891 0)"/>
     <use xlink:href="#DejaVuSans-Bold-6c" transform="translate(277.160156 0)"/>
     <use xlink:href="#DejaVuSans-Bold-20" transform="translate(311.4375 0)"/>
     <use xlink:href="#DejaVuSans-Bold-42" transform="translate(346.251953 0)"/>
     <use xlink:href="#DejaVuSans-Bold-20" transform="translate(422.472656 0)"/>
     <use xlink:href="#DejaVuSans-Bold-2014" transform="translate(457.287109 0)"/>
     <use xlink:href="#DejaVuSans-Bold-20" transform="translate(557.287109 0)"/>
     <use xlink:href="#DejaVuSans-Bold-53" transform="translate(592.101562 0)"/>
     <use xlink:href="#DejaVuSans-Bold-68" transform="translate(664.123047 0)"/>
     <use xlink:href="#DejaVuSans-Bold-61" transform="translate(735.314453 0)"/>
     <use xlink:href="#DejaVuSans-Bold-70" transform="translate(802.794922 0)"/>
     <use xlink:href="#DejaVuSans-Bold-65" transform="translate(874.376953 0)"/>
     <use xlink:href="#DejaVuSans-Bold-20" transform="translate(942.199219 0)"/>
     <use xlink:href="#DejaVuSans-Bold-61" transform="translate(977.013672 0)"/>
     <use xlink:href="#DejaVuSans-Bold-74" transform="translate(1044.494141 0)"/>
     <use xlink:href="#DejaVuSans-Bold-74" transform="translate(1092.296875 0)"/>
     <use xlink:href="#DejaVuSans-Bold-65" transform="translate(1140.099609 0)"/>
     <use xlink:href="#DejaVuSans-Bold-6e" transform="translate(1207.921875 0)"/>
     <use xlink:href="#DejaVuSans-Bold-64" transform="translate(1279.113281 0)"/>
     <use xlink:href="#DejaVuSans-Bold-20" transform="translate(1350.695312 0)"/>
     <use xlink:href="#DejaVuSans-Bold-28" transform="translate(1385.509766 0)"/>
     <use xlink:href="#DejaVuSans-Bold-70" transform="translate(1431.212891 0)"/>
     <use xlink:href="#DejaVuSans-Bold-61" transform="translate(1502.794922 0)"/>
     <use xlink:href="#DejaVuSans-Bold-70" transform="translate(1570.275391 0)"/>
     <use xlink:href="#DejaVuSans-Bold-65" transform="translate(1641.857422 0)"/>
     <use xlink:href="#DejaVuSans-Bold-72" transform="translate(1709.679688 0)"/>
     <use xlink:href="#DejaVuSans-Bold-5f" transform="translate(1758.996094 0)"/>
     <use xlink:href="#DejaVuSans-Bold-62" transform="translate(1808.996094 0)"/>
     <use xlink:href="#DejaVuSans-Bold-29" transform="translate(1880.578125 0)"/>
    </g>
   </g>
  </g>
 </g>
 <defs>
  <clipPath id="pb70d399718">
   <rect x="57.089219" y="63.316562" width="352.8" height="352.8"/>
  </clipPath>
 </defs>
</svg>
